<?xml version="1.0" encoding="UTF-8" standalone="no"?>
<!-- Created with Inkscape (http://www.inkscape.org/) -->

<svg
   xmlns:dc="http://purl.org/dc/elements/1.1/"
   xmlns:cc="http://creativecommons.org/ns#"
   xmlns:rdf="http://www.w3.org/1999/02/22-rdf-syntax-ns#"
   xmlns:svg="http://www.w3.org/2000/svg"
   xmlns="http://www.w3.org/2000/svg"
   xmlns:xlink="http://www.w3.org/1999/xlink"
   xmlns:sodipodi="http://sodipodi.sourceforge.net/DTD/sodipodi-0.dtd"
   xmlns:inkscape="http://www.inkscape.org/namespaces/inkscape"
   width="128"
   height="128"
   id="svg2"
   version="1.1"
   inkscape:version="0.47 r22583"
   sodipodi:docname="quran-kareem3.svg">
  <defs
     id="defs4">
    <linearGradient
       id="linearGradient3605">
      <stop
         style="stop-color:#ffff00;stop-opacity:1;"
         offset="0"
         id="stop3607" />
      <stop
         id="stop3615"
         offset="0.5"
         style="stop-color:#b4b400;stop-opacity:1;" />
      <stop
         style="stop-color:#ffea00;stop-opacity:1;"
         offset="1"
         id="stop3609" />
    </linearGradient>
    <linearGradient
       id="linearGradient3639">
      <stop
         style="stop-color:#009300;stop-opacity:1;"
         offset="0"
         id="stop3641" />
      <stop
         id="stop3649"
         offset="0.5"
         style="stop-color:#000000;stop-opacity:1;" />
      <stop
         style="stop-color:#009300;stop-opacity:1;"
         offset="1"
         id="stop3643" />
    </linearGradient>
    <inkscape:perspective
       sodipodi:type="inkscape:persp3d"
       inkscape:vp_x="0 : 526.18109 : 1"
       inkscape:vp_y="0 : 1000 : 0"
       inkscape:vp_z="744.09448 : 526.18109 : 1"
       inkscape:persp3d-origin="372.04724 : 350.78739 : 1"
       id="perspective10" />
    <inkscape:perspective
       id="perspective2824"
       inkscape:persp3d-origin="0.5 : 0.33333333 : 1"
       inkscape:vp_z="1 : 0.5 : 1"
       inkscape:vp_y="0 : 1000 : 0"
       inkscape:vp_x="0 : 0.5 : 1"
       sodipodi:type="inkscape:persp3d" />
    <radialGradient
       inkscape:collect="always"
       xlink:href="#linearGradient3639"
       id="radialGradient3645"
       cx="21.480547"
       cy="11.077473"
       fx="21.480547"
       fy="11.077473"
       r="60.047894"
       gradientUnits="userSpaceOnUse" />
    <radialGradient
       inkscape:collect="always"
       xlink:href="#linearGradient3605"
       id="radialGradient3613"
       cx="219.30647"
       cy="596.03754"
       fx="219.30647"
       fy="596.03754"
       r="57.497196"
       gradientTransform="matrix(1,0,0,1.0017845,0,-1.0636509)"
       gradientUnits="userSpaceOnUse" />
    <linearGradient
       inkscape:collect="always"
       xlink:href="#linearGradient3605"
       id="linearGradient3625"
       x1="70.772949"
       y1="56.21796"
       x2="-16.108767"
       y2="-35.902073"
       gradientUnits="userSpaceOnUse" />
  </defs>
  <sodipodi:namedview
     id="base"
     pagecolor="#ffffff"
     bordercolor="#666666"
     borderopacity="1.0"
     inkscape:pageopacity="0.0"
     inkscape:pageshadow="2"
     inkscape:zoom="4.0327184"
     inkscape:cx="97.578075"
     inkscape:cy="63.999983"
     inkscape:document-units="px"
     inkscape:current-layer="layer1"
     showgrid="false"
     inkscape:window-width="1280"
     inkscape:window-height="975"
     inkscape:window-x="0"
     inkscape:window-y="25"
     inkscape:window-maximized="1" />
  <metadata
     id="metadata7">
    <rdf:RDF>
      <cc:Work
         rdf:about="">
        <dc:format>image/svg+xml</dc:format>
        <dc:type
           rdf:resource="http://purl.org/dc/dcmitype/StillImage" />
        <dc:title></dc:title>
      </cc:Work>
    </rdf:RDF>
  </metadata>
  <g
     inkscape:label="Layer 1"
     inkscape:groupmode="layer"
     id="layer1"
     transform="translate(-155.30648,-532.03752)">
    <path
       sodipodi:type="arc"
       style="fill:url(#linearGradient3625);fill-opacity:1;stroke:none"
       id="path2861"
       sodipodi:cx="21.480547"
       sodipodi:cy="11.077473"
       sodipodi:rx="60.047894"
       sodipodi:ry="60.047894"
       d="m 81.52844,11.077473 c 0,33.163536 -26.884357,60.047893 -60.047893,60.047893 -33.163536,0 -60.047894,-26.884357 -60.047894,-60.047893 0,-33.163536 26.884358,-60.047894 60.047894,-60.047894 33.163536,0 60.047893,26.884358 60.047893,60.047894 z"
       transform="matrix(1.0487805,0,0,1.0487805,196.7781,584.41968)" />
    <path
       transform="matrix(1.0040651,0,0,1.0040651,197.73861,584.91501)"
       d="m 81.52844,11.077473 c 0,33.163536 -26.884357,60.047893 -60.047893,60.047893 -33.163536,0 -60.047894,-26.884357 -60.047894,-60.047893 0,-33.163536 26.884358,-60.047894 60.047894,-60.047894 33.163536,0 60.047893,26.884358 60.047893,60.047894 z"
       sodipodi:ry="60.047894"
       sodipodi:rx="60.047894"
       sodipodi:cy="11.077473"
       sodipodi:cx="21.480547"
       id="path2865"
       style="fill:url(#radialGradient3645);fill-opacity:1;stroke:none"
       sodipodi:type="arc" />
    <path
       style="fill:url(#radialGradient3613);fill-opacity:1"
       d="m 214.93123,651.74392 c -1.99898,-1.71895 -2.12334,-2.12882 -2.12334,-6.99806 l 0,-5.17216 -3.42982,1.73688 c -1.88641,0.95529 -5.85426,2.35696 -8.81745,3.11481 -5.98916,1.53177 -11.13765,1.09553 -15.20828,-1.28861 -3.9154,-2.29324 -5.07673,-4.64395 -5.09021,-10.30344 -0.006,-2.80268 0.23853,-6.36979 0.54494,-7.92691 0.30983,-1.57455 0.29041,-2.43703 -0.0437,-1.94323 -1.37682,2.03465 -5.51419,4.42047 -7.66577,4.42047 -3.70672,0 -5.94155,-3.26392 -5.94155,-8.6775 0,-2.55901 0.59297,-5.99234 1.45358,-8.41631 l 1.45357,-4.09411 -1.63051,-2.20763 c -1.27481,-1.72604 -1.62527,-3.11138 -1.60643,-6.35015 0.0202,-3.4834 0.52283,-5.11259 3.15871,-10.23964 3.14897,-6.12504 4.96503,-8.56127 4.94815,-6.63792 -0.005,0.53426 -0.75473,2.27616 -1.66675,3.87088 -3.02228,5.28464 -4.96524,11.7157 -4.41911,14.62689 0.42809,2.28192 0.7593,2.64501 2.4106,2.64272 2.84887,-0.005 5.46547,-1.88568 14.13631,-10.16625 l 7.85269,-7.49927 -5.25755,-3.83955 c -2.89165,-2.11174 -6.67201,-4.73439 -8.40078,-5.8281 -4.35914,-2.75779 -5.61232,-5.86774 -3.88874,-9.65058 0.847,-1.85893 2.01946,-2.69181 7.91216,-5.6205 2.23836,-1.11248 4.06975,-2.15032 4.06975,-2.30632 0,-0.156 -0.52178,-0.80543 -1.15953,-1.44318 -1.8605,-1.86049 -0.23041,-6.28318 2.75511,-7.47507 1.26346,-0.50441 4.30521,-1.82078 6.75943,-2.92527 4.83751,-2.17708 19.33962,-7.08828 19.74213,-6.68577 0.86028,0.86029 -1.07071,2.49289 -4.23514,3.58068 -10.65457,3.66253 -23.862,9.2005 -23.862,10.00547 0,0.21011 0.48255,1.31515 1.07233,2.45566 l 1.07233,2.07367 3.70519,-1.48561 c 11.81983,-4.73921 29.28464,-9.80982 33.78821,-9.80982 0.81265,0 2.27379,0.79622 3.24694,1.76937 1.49572,1.49571 1.69635,2.17987 1.29726,4.42362 -0.6878,3.86697 -2.5001,6.47093 -7.75349,11.14041 -2.5698,2.28416 -5.67829,5.55373 -6.90773,7.26571 -2.71639,3.78251 -3.34411,2.82908 -1.09816,-1.668 1.48388,-2.97118 5.91986,-7.77651 11.5601,-12.52262 2.09257,-1.76084 2.10141,-1.79807 0.77504,-3.2637 -0.97853,-1.08127 -2.19319,-1.48254 -4.48755,-1.48254 -3.23839,0 -13.55869,2.48458 -21.05319,5.06849 -8.40662,2.89838 -25.12621,10.36517 -25.12621,11.22109 0,0.23924 1.03512,0.96871 2.30029,1.62105 2.41097,1.24314 8.16502,4.69881 15.21837,9.13958 l 4.18011,2.6318 3.27368,-1.24266 c 1.80054,-0.68347 3.44215,-1.41113 3.648,-1.61699 0.20588,-0.20587 -0.30018,-4.22132 -1.12455,-8.92325 -1.43037,-8.15819 -1.39002,-12.23687 0.121,-12.23687 0.38187,0 0.69429,0.29734 0.69429,0.66076 0,0.3634 1.00522,2.27779 2.23381,4.25417 2.21287,3.55979 2.34044,5.3188 0.26053,3.59263 -1.34488,-1.11615 -1.40532,-0.1909 -0.3185,4.87671 0.91341,4.25912 2.89912,6.96823 6.08248,8.29831 2.11349,0.88307 2.35839,1.2784 2.35839,3.80703 0,3.12403 -0.3318,3.30246 -3.28105,1.76432 -2.36322,-1.23251 -6.12787,-1.38344 -8.10566,-0.32495 -1.23095,0.65878 -0.53812,1.3471 6.23962,6.19893 4.19338,3.00183 8.8187,6.3689 10.2785,7.48241 l 2.65418,2.02454 0,-1.91417 c 0,-1.05278 -0.34256,-8.0711 -0.76124,-15.59627 -0.65616,-11.79321 -0.61523,-13.95897 0.29656,-15.68742 l 1.05782,-2.0053 1.53065,3.5389 c 3.57137,8.25711 4.21844,12.52363 1.32959,8.76661 l -1.29856,-1.6888 0.0471,3.8928 c 0.0258,2.14103 0.41693,8.32125 0.86898,13.73382 l 0.82189,9.84103 2.75346,1.42743 c 2.52918,1.31116 2.9904,1.34553 5.66225,0.4218 l 2.90882,-1.00565 0.12999,-4.24668 c 0.0716,-2.33567 -0.16399,-6.7947 -0.52334,-9.90892 -0.35935,-3.11425 -0.96022,-9.96203 -1.33525,-15.2173 -0.37504,-5.25527 -1.03423,-13.94277 -1.46485,-19.30556 -0.73201,-9.11577 -0.57052,-12.56342 0.58697,-12.53108 0.67138,0.0187 5.08371,10.17444 5.08371,11.70101 0,1.17602 -0.0783,1.17403 -1.41556,-0.0361 -1.73123,-1.56673 -1.70808,-2.22132 -0.40035,11.32449 2.86575,29.68462 3.04035,34.02179 1.56636,38.91202 -1.43331,4.75531 -6.55755,7.17634 -11.34032,5.35795 l -1.77309,-0.67414 0.1345,11.82169 c 0.12988,11.41452 -0.7918,18.54558 -2.39698,18.54558 -0.31795,0 -0.51544,-3.10539 -0.43885,-6.90086 0.0767,-3.79547 -0.13018,-11.24103 -0.45945,-16.54567 l -0.59868,-9.6448 -4.70969,-3.58282 c -2.59031,-1.97055 -5.34683,-4.15966 -6.12555,-4.86471 -0.77874,-0.70504 -3.28205,-2.6722 -5.56292,-4.37148 l -4.14703,-3.08959 1.79434,3.08959 c 2.34704,4.04126 2.96209,7.63676 1.88273,11.00601 -1.34106,4.18604 -3.23095,5.709 -9.47757,7.63735 -6.66751,2.05829 -12.6557,5.32233 -14.2621,7.774 -0.62145,0.94846 -1.45777,3.73175 -1.85845,6.18508 -0.93627,5.73241 0.15684,9.1478 3.89082,12.1568 2.30399,1.85668 3.40625,2.21125 7.61281,2.44894 7.08809,0.40052 16.48874,-3.02455 23.55417,-8.58178 3.2299,-2.54044 3.21762,-3.22247 -0.23036,-12.79375 -1.72267,-4.78191 -2.14712,-6.88241 -1.78299,-8.82338 l 0.47789,-2.54742 3.09703,3.51503 c 3.43695,3.90081 3.84266,4.92256 1.73586,4.37161 -1.74731,-0.45693 -1.7473,-0.31571 2.5e-4,4.28242 1.57156,4.13482 1.84255,9.35233 0.60857,11.71732 -0.44366,0.85028 -2.1455,2.99184 -3.78186,4.75901 -2.43675,2.63152 -3.06549,3.89358 -3.47402,6.97324 -0.38089,2.87137 -0.23597,4.16136 0.61316,5.45727 2.27343,3.4697 4.50057,1.98192 15.09081,-10.08103 3.73818,-4.25802 5.28364,-5.28151 13.14711,-8.70678 l 4.15571,-1.8102 0.14826,-4.95447 c 0.19778,-6.60975 2.21591,-10.26283 5.66964,-10.26283 1.25645,0 1.9094,0.66822 2.78057,2.84546 0.62619,1.56501 1.13851,3.43596 1.13851,4.15769 0,2.20916 -2.08712,7.3766 -3.65236,9.04272 -2.14728,2.28568 -1.26197,3.77201 2.24677,3.77201 2.11992,0 3.34645,-0.46095 4.62279,-1.73729 2.10792,-2.1079 2.13793,-3.085 0.69692,-22.68116 -3.27316,-44.51135 -3.55041,-52.055 -1.91146,-52.00839 0.54269,0.0155 5.07515,10.05121 5.07515,11.23743 0,1.20431 -1.26143,0.92521 -2.06663,-0.45727 -1.02144,-1.75369 -0.97732,0.9899 0.26392,16.41551 3.30334,41.0524 3.11366,47.06195 -1.62888,51.60559 -4.06312,3.89272 -9.04461,3.79928 -10.81614,-0.2029 -0.52866,-1.19434 -1.32145,-2.17152 -1.76175,-2.17152 -1.76993,0 -11.95302,5.15149 -14.51071,7.34079 -1.50175,1.28544 -4.29251,4.40058 -6.20169,6.92255 -5.51255,7.28191 -8.53251,8.52741 -12.46887,5.14245 z m 37.70879,-26.87761 c 1.82738,-1.27995 2.08959,-4.30207 0.55283,-6.37158 -2.14009,-2.88198 -4.7511,1.29131 -3.62215,5.78944 0.49638,1.97771 0.95315,2.06435 3.06932,0.58214 z M 175.7385,621.8937 c 1.02223,-0.67868 3.57992,-3.01452 5.68377,-5.19078 5.34674,-5.53075 8.62595,-7.50291 17.38936,-10.45816 6.31588,-2.12987 7.66387,-2.83605 7.84529,-4.10992 0.32496,-2.28194 -2.21399,-6.73088 -6.34695,-11.12156 -4.37168,-4.64429 -3.19621,-5.12603 -14.55032,5.96315 -4.85697,4.74365 -9.26785,8.40447 -11.10632,9.21771 -2.46133,1.08876 -3.2693,1.93148 -4.18819,4.36839 -2.74032,7.26728 -2.12729,12.57829 1.4509,12.56978 1.08015,-0.002 2.80025,-0.55993 3.82246,-1.23861 z m 2.50609,-7.72196 c -0.88387,-0.88385 -0.47525,-6.03096 0.67046,-8.44536 1.15235,-2.42839 2.97961,-3.47208 2.04603,-1.16865 -1.5136,3.73454 -1.87415,5.26192 -1.48285,6.28165 0.35179,0.91671 0.63532,0.96595 1.4879,0.25838 1.23543,-1.02531 1.29776,-0.72821 0.36302,1.73033 -0.65941,1.73438 -2.07652,2.3517 -3.08456,1.34365 z m 10.71639,-11.7628 c -1.85689,-1.52691 -1.87536,-1.61692 -0.72078,-3.51346 1.33289,-2.18948 2.39403,-2.44402 3.68815,-0.88471 1.22402,1.47484 2.56602,1.32555 3.78977,-0.4216 l 1.03892,-1.48324 2.18622,1.61635 c 2.54573,1.88213 2.64141,2.51646 0.72645,4.81607 l -1.41268,1.69644 -1.8089,-1.69644 -1.8089,-1.69647 -1.29195,1.59251 c -1.58463,1.95329 -1.98275,1.95098 -4.3863,-0.0255 z m 41.21005,50.63178 c 0.0125,-0.29195 0.49013,-1.14909 1.06166,-1.90472 1.35152,-1.78688 1.33927,-3.29742 -0.0225,-2.77486 -1.53397,0.58865 -1.3039,-0.72099 0.39711,-2.26039 1.24845,-1.12982 1.55302,-1.17115 2.1125,-0.28664 0.93509,1.47834 0.85555,1.93583 -0.87048,5.0069 -1.39608,2.48398 -2.7366,3.59498 -2.67829,2.21971 z m 11.6996,-4.78202 c -0.60183,-1.44038 -1.79376,-2.76948 -2.84061,-3.1675 -2.06644,-0.78565 -2.64536,-4.2597 -0.70986,-4.2597 1.14236,0 3.69348,2.34942 4.94214,4.55134 0.67773,1.19512 0.73532,1.18105 0.83974,-0.20526 0.15171,-2.01382 1.77824,-5.24034 2.81117,-5.57638 1.08356,-0.35251 3.32657,3.04647 2.69003,4.07641 -0.33278,0.53842 -0.90312,0.40677 -1.81572,-0.41911 -1.48367,-1.34272 -1.32689,-1.57355 -2.79843,4.11998 -0.47791,1.84907 -1.14175,3.36195 -1.47522,3.36195 -0.33346,0 -1.07292,-1.11678 -1.64324,-2.48173 z m -67.61172,-11.49694 c 0.0139,-0.29195 0.48026,-1.32709 1.03659,-2.30029 1.30309,-2.27951 1.30309,-2.83112 0,-2.83112 -1.2798,0 -1.36828,-0.82584 -0.21233,-1.98179 1.16463,-1.16464 2.45527,-1.06524 2.95127,0.22731 0.44252,1.15324 -2.28849,7.41673 -3.23386,7.41673 -0.31172,0 -0.55547,-0.23888 -0.54167,-0.53084 z m 16.96769,-2.27482 c -1.15898,-0.74016 -1.45839,-6.06149 -0.52807,-9.38489 l 0.53963,-1.9277 -2.51625,1.48462 c -2.63827,1.55661 -3.96162,1.35408 -2.51801,-0.38537 0.91243,-1.0994 9.4644,-6.40137 11.66022,-7.22897 2.17496,-0.81976 1.0134,1.26562 -1.74364,3.13038 -3.48247,2.3554 -4.51669,4.75556 -4.27047,9.91053 0.0623,1.30536 0.36733,1.54848 1.49391,1.19092 1.74533,-0.55395 1.81739,0.42149 0.17694,2.39475 -0.89661,1.07852 -1.5301,1.30375 -2.29426,0.81573 z m 10.3765,-6.42779 c -2.20813,-1.73692 -2.35192,-2.80161 -0.65054,-4.81706 l 1.23861,-1.46728 2.09441,1.71042 c 1.83047,1.49487 2.00886,1.95248 1.41556,3.63131 -0.89375,2.52901 -1.81258,2.74036 -4.09804,0.94261 z m 9.14794,-0.60201 c -1.42127,-1.57048 -1.42122,-3.20791 2.3e-4,-7.37963 1.30262,-3.82298 2.64205,-3.85463 1.5881,-0.0375 -0.81318,2.94507 -0.18768,6.85472 0.83256,5.20393 0.84921,-1.37405 1.43711,-0.61155 0.9537,1.23698 -0.53792,2.05699 -2.01089,2.48313 -3.37459,0.97627 z m 22.93639,-2.07932 c 0,-0.40796 0.30807,-0.93213 0.6846,-1.16484 0.37652,-0.23271 0.50756,-1.30828 0.29117,-2.39018 -0.29539,-1.47697 0.0865,-2.53739 1.53272,-4.25615 2.18283,-2.59413 4.9232,-2.84229 4.9232,-0.44581 0,1.09107 -0.47185,1.41556 -2.05848,1.41556 -1.13218,0 -2.18484,0.37111 -2.33925,0.82467 -0.40072,1.17701 2.32585,1.86684 5.2273,1.32253 2.07798,-0.38983 2.43782,-0.27377 2.23876,0.72209 -0.14644,0.73252 -1.72681,1.6628 -4.13,2.4311 -2.14104,0.6845 -4.45017,1.47813 -5.13141,1.76365 -0.72192,0.30256 -1.23861,0.2097 -1.23861,-0.22262 z m 35.03515,-9.8491 c 0,-5.74208 -0.56254,-18.44801 -1.25008,-28.23539 -0.93898,-13.36689 -1.05551,-18.29859 -0.46823,-19.81788 0.77112,-1.99486 0.81464,-1.94493 3.17161,3.63964 1.31436,3.11422 2.40095,6.06037 2.41463,6.54697 0.0363,1.29493 -1.20696,1.07943 -2.04179,-0.35389 -1.02126,-1.75338 -0.95088,1.908 0.30267,15.74812 1.35203,14.92731 1.34113,24.61761 -0.0328,29.24444 -0.59901,2.01705 -1.31564,3.66756 -1.59251,3.66776 -0.27688,2.1e-4 -0.50341,-4.69769 -0.50341,-10.43977 z m -68.28414,2.27977 c 0.4938,-0.595 3.37716,-3.17408 6.40747,-5.73132 3.03031,-2.55722 5.6825,-5.09995 5.89376,-5.6505 0.21127,-0.55053 0.029,-1.78042 -0.40506,-2.73306 -0.63305,-1.38936 -0.54989,-2.09728 0.42023,-3.57788 0.97528,-1.48846 1.40579,-1.68284 2.22374,-1.004 0.55788,0.46299 1.01432,1.69461 1.01432,2.73693 0,1.04232 0.35445,2.24957 0.78768,2.68279 0.92461,0.92462 0.19431,2.4516 -1.03727,2.16877 -0.46783,-0.10739 -2.10274,1.19062 -3.63312,2.88455 -3.19111,3.53218 -10.46328,9.30553 -11.72137,9.30553 -0.63745,0 -0.62511,-0.26881 0.0496,-1.08181 z m 40.32679,-4.5037 c 0,-0.4315 0.637,-0.78452 1.41556,-0.78452 0.77856,0 1.41557,-0.34381 1.41557,-0.76403 0,-0.48842 -0.82974,-0.59113 -2.3003,-0.28472 l -2.30028,0.47928 1.52639,-1.57589 c 1.24924,-1.28976 1.98821,-1.48925 4.06974,-1.09876 2.84579,0.53388 3.11426,1.09467 1.30473,2.72539 -1.62051,1.46038 -5.13141,2.35205 -5.13141,1.30325 z m -78.81121,-1.32022 c -0.2187,-0.35386 0.38505,-1.79523 1.34168,-3.20303 1.6168,-2.37934 1.65199,-2.60921 0.49954,-3.26318 -1.15358,-0.65462 -1.15839,-0.78597 -0.0692,-1.88904 1.62907,-1.64964 2.95929,-0.61142 2.45395,1.9153 -0.4998,2.49899 -3.6731,7.33468 -4.22607,6.43995 z m 85.55154,-4.40064 c -1.18425,-1.30859 -1.19019,-1.51106 -0.0934,-3.18501 1.34699,-2.05575 1.69537,-2.12451 3.57199,-0.70502 1.23312,0.93272 1.53893,0.8804 3.0274,-0.51795 l 1.65572,-1.55546 1.91098,1.91099 1.911,1.91098 -1.90345,1.90345 c -1.86069,1.86068 -1.93589,1.87413 -3.34589,0.59809 -1.34502,-1.21724 -1.52982,-1.22628 -2.73677,-0.13401 -1.68047,1.52082 -2.4564,1.47694 -3.99759,-0.22606 z m 2.46082,-7.91222 c 0,-1.38323 -0.20509,-4.47712 -0.45575,-6.87531 l -0.45574,-4.36032 -2.46459,1.45414 c -2.6958,1.59057 -4.20627,1.21444 -1.93116,-0.48089 4.83885,-3.60572 4.51897,-2.70145 3.84257,-10.86254 -2.08791,-25.19162 -2.22763,-31.85015 -0.66833,-31.85015 0.66557,0 4.96413,10.19361 4.96413,11.77193 0,1.08032 -0.12781,1.07186 -1.41562,-0.0937 -1.40004,-1.26702 -1.41225,-1.24295 -1.11045,2.1906 0.16783,1.90942 0.54625,6.81596 0.84093,10.9034 0.29467,4.08743 0.5953,7.67057 0.66808,7.96253 0.0728,0.29196 0.17214,1.36608 0.2208,2.38696 0.0757,1.58909 0.24552,1.72577 1.18014,0.9501 0.75737,-0.62856 0.86574,-1.13193 0.3539,-1.64378 -1.03645,-1.03644 -0.91739,-3.47739 0.24729,-5.07019 0.81057,-1.1085 1.17533,-1.18929 2.05888,-0.456 1.35105,1.12126 1.41884,7.19487 0.0804,7.19487 -1.78355,0 -3.88074,3.6207 -3.4459,5.94918 0.47457,2.54123 -0.8577,11.78164 -1.84139,12.77162 -0.41976,0.42247 -0.66811,-0.26244 -0.66811,-1.84256 z m 22.93847,-0.95782 c -0.54218,-2.1602 0.18033,-6.32939 1.55882,-8.9951 1.68617,-3.26068 2.26593,-2.22215 0.94226,1.68788 -1.30924,3.86739 -1.12407,5.86918 0.48579,5.25142 1.15607,-0.44363 1.17175,-0.3309 0.28007,2.01437 -0.88154,2.31864 -2.68964,2.34158 -3.26694,0.0415 z m -40.34887,-2.85251 c -0.70508,-2.80923 1.26833,-10.23679 2.71979,-10.23679 0.77286,0 0.67357,0.65153 -0.61265,4.01939 -1.32884,3.47956 -0.89815,5.87815 0.80213,4.46703 1.28088,-1.06301 1.44785,0.0706 0.32062,2.17683 -1.02914,1.92295 -2.69546,1.70293 -3.22989,-0.42646 z m -53.41963,-4.67161 c -0.93709,-1.75096 -0.56189,-4.8493 1.05618,-8.7219 1.41637,-3.38983 2.19068,-2.86902 1.17465,0.79007 -0.41549,1.4963 -0.7572,3.45863 -0.75937,4.36075 -0.002,1.33783 0.26645,1.55438 1.46287,1.17464 1.42475,-0.45218 1.43437,-0.40282 0.33572,1.72177 -1.33126,2.57435 -2.16168,2.74569 -3.27005,0.67467 z m 39.08773,0.5809 c -0.85954,-1.03568 -0.0312,-4.97036 1.79189,-8.51213 1.5877,-3.08439 1.92664,-1.69578 0.57751,2.36605 -1.28418,3.8663 -1.06227,5.00791 0.69068,3.5531 1.3011,-1.07982 1.4803,0.0363 0.34609,2.15568 -0.84909,1.58652 -2.29801,1.77254 -3.40617,0.4373 z m -56.27848,-5.08441 c 0.22407,-0.58391 0.63616,-1.06167 0.91575,-1.06167 0.72981,0 8.84791,-6.36278 9.13911,-7.16303 0.13413,-0.36858 -0.14351,-1.1369 -0.61698,-1.70738 -1.20964,-1.45754 0.40424,-5.2852 2.22845,-5.2852 1.08517,0 1.32968,0.53441 1.32968,2.90621 0,3.59689 -2.8048,7.40967 -8.04862,10.94105 -3.86701,2.60419 -5.60575,3.08568 -4.94739,1.37002 z m 3.82178,-8.79694 c -0.62769,-1.17288 -0.50832,-2.12737 0.57125,-4.56796 0.75063,-1.69689 1.71936,-3.30441 2.15275,-3.57226 1.02384,-0.63276 0.99674,-0.36816 -0.27368,2.67239 -0.58392,1.39751 -1.06167,2.90865 -1.06167,3.3581 0,0.58931 0.29605,0.57148 1.06167,-0.0639 1.66157,-1.37897 1.38121,0.90699 -0.29755,2.42627 -1.29662,1.1734 -1.39581,1.16176 -2.15277,-0.25261 z m 29.07259,-4.84699 c -0.96224,-1.88616 -2.02929,-2.96641 -3.07706,-3.11512 -2.02237,-0.28706 -2.63755,-3.19632 -0.8231,-3.89259 0.87071,-0.33412 1.79551,0.19899 3.14103,1.8107 l 1.90697,2.28425 0.78669,-3.12423 c 1.00108,-3.97563 2.52397,-5.42077 3.59787,-3.41418 1.41448,2.64299 0.384,5.18264 -1.11727,2.75354 -0.66677,-1.07887 -1.48703,1.54033 -1.60478,5.12428 -0.14055,4.27775 -1.14405,4.83956 -2.81035,1.57335 z m 36.72574,-3.34085 c -0.97404,-1.17364 -0.67542,-5.01476 0.65432,-8.41654 1.20624,-3.0858 1.78653,-1.62322 0.78095,1.96834 -0.87303,3.11818 -0.53712,5.07911 0.73535,4.29268 1.04296,-0.64458 0.7655,1.53786 -0.30889,2.42952 -0.73636,0.61113 -1.18152,0.54562 -1.86173,-0.274 z m 10.59287,-1.10513 c -0.86959,-1.62486 -0.34757,-5.02334 1.1895,-7.74408 0.92997,-1.64609 0.96879,-1.51016 0.55707,1.94985 -0.38301,3.21881 -0.29071,3.66103 0.68599,3.28623 1.29893,-0.49845 1.46593,0.59664 0.39588,2.59604 -0.9439,1.76366 -1.85257,1.73539 -2.82844,-0.088 z m -27.40429,-5.01901 c -0.4866,-0.48666 -0.88473,-1.47788 -0.88473,-2.20268 0,-1.75152 3.46307,-9.01576 4.29808,-9.01576 1.02238,0 0.78198,1.17534 -0.75654,3.69874 -1.74687,2.86515 -1.97029,5.42615 -0.35653,4.08685 1.55671,-1.29196 1.42316,0.81235 -0.17694,2.78822 -0.99096,1.22365 -1.41552,1.35256 -2.12334,0.64463 z m -38.68182,-1.83014 c -0.82264,-0.82265 -0.40834,-5.24041 0.69078,-7.36588 1.4055,-2.71793 2.13914,-2.12757 1.09131,0.87819 -1.0271,2.94637 -0.99607,3.46941 0.20581,3.46941 0.63505,0 0.86603,0.49473 0.63803,1.36661 -0.37262,1.42489 -1.89508,2.38252 -2.62593,1.65167 z m 48.41381,-18.45283 c 0,-0.31413 0.87587,-0.94532 1.9464,-1.40263 1.89488,-0.8095 1.87615,-0.82366 -0.70779,-0.53503 -2.75224,0.30742 -3.25973,-0.14143 -1.80484,-1.59632 0.88038,-0.88038 6.36073,-1.18893 7.14728,-0.40237 0.85579,0.85577 -0.90394,2.94828 -3.13282,3.72528 -2.67002,0.93077 -3.44823,0.9784 -3.44823,0.21107 z"
       id="path2830" />
  </g>
</svg>
