<?xml version="1.0" encoding="UTF-8" standalone="no"?>
<!-- Created with Inkscape (http://www.inkscape.org/) -->

<svg
   xmlns:dc="http://purl.org/dc/elements/1.1/"
   xmlns:cc="http://creativecommons.org/ns#"
   xmlns:rdf="http://www.w3.org/1999/02/22-rdf-syntax-ns#"
   xmlns:svg="http://www.w3.org/2000/svg"
   xmlns="http://www.w3.org/2000/svg"
   xmlns:xlink="http://www.w3.org/1999/xlink"
   xmlns:sodipodi="http://sodipodi.sourceforge.net/DTD/sodipodi-0.dtd"
   xmlns:inkscape="http://www.inkscape.org/namespaces/inkscape"
   width="128"
   height="128"
   id="svg2"
   version="1.1"
   inkscape:version="0.47 r22583"
   sodipodi:docname="quran-kareem2.svg">
  <defs
     id="defs4">
    <linearGradient
       inkscape:collect="always"
       id="linearGradient3903">
      <stop
         style="stop-color:#bde612;stop-opacity:1;"
         offset="0"
         id="stop3905" />
      <stop
         style="stop-color:#bde612;stop-opacity:0;"
         offset="1"
         id="stop3907" />
    </linearGradient>
    <linearGradient
       id="linearGradient3863">
      <stop
         style="stop-color:#bde912;stop-opacity:0.05882353;"
         offset="0"
         id="stop3883" />
      <stop
         id="stop3885"
         offset="1"
         style="stop-color:#bae710;stop-opacity:1;" />
      <stop
         style="stop-color:#bde612;stop-opacity:0;"
         offset="1"
         id="stop3867" />
    </linearGradient>
    <linearGradient
       id="linearGradient3639">
      <stop
         style="stop-color:#f3ffdf;stop-opacity:1;"
         offset="0"
         id="stop3641" />
      <stop
         id="stop3649"
         offset="0.5"
         style="stop-color:#ffffff;stop-opacity:1;" />
      <stop
         style="stop-color:#f3ffdf;stop-opacity:1;"
         offset="1"
         id="stop3643" />
    </linearGradient>
    <inkscape:perspective
       sodipodi:type="inkscape:persp3d"
       inkscape:vp_x="0 : 526.18109 : 1"
       inkscape:vp_y="0 : 1000 : 0"
       inkscape:vp_z="744.09448 : 526.18109 : 1"
       inkscape:persp3d-origin="372.04724 : 350.78739 : 1"
       id="perspective10" />
    <inkscape:perspective
       id="perspective2824"
       inkscape:persp3d-origin="0.5 : 0.33333333 : 1"
       inkscape:vp_z="1 : 0.5 : 1"
       inkscape:vp_y="0 : 1000 : 0"
       inkscape:vp_x="0 : 0.5 : 1"
       sodipodi:type="inkscape:persp3d" />
    <radialGradient
       inkscape:collect="always"
       xlink:href="#linearGradient3639"
       id="radialGradient3645"
       cx="21.480547"
       cy="11.077473"
       fx="21.480547"
       fy="11.077473"
       r="60.047894"
       gradientUnits="userSpaceOnUse" />
    <radialGradient
       inkscape:collect="always"
       xlink:href="#linearGradient3863"
       id="radialGradient3869"
       cx="63.981625"
       cy="63.941162"
       fx="63.981625"
       fy="63.941162"
       r="60.350578"
       gradientTransform="matrix(1,0,0,0.99872856,0,0.08129734)"
       gradientUnits="userSpaceOnUse" />
    <linearGradient
       inkscape:collect="always"
       xlink:href="#linearGradient3903"
       id="linearGradient3911"
       x1="13.477977"
       y1="73.350464"
       x2="51.490353"
       y2="73.350464"
       gradientUnits="userSpaceOnUse" />
  </defs>
  <sodipodi:namedview
     id="base"
     pagecolor="#ffffff"
     bordercolor="#666666"
     borderopacity="1.0"
     inkscape:pageopacity="0.0"
     inkscape:pageshadow="2"
     inkscape:zoom="4.0967298"
     inkscape:cx="71.90106"
     inkscape:cy="66.164687"
     inkscape:document-units="px"
     inkscape:current-layer="layer1"
     showgrid="false"
     inkscape:window-width="1440"
     inkscape:window-height="846"
     inkscape:window-x="-8"
     inkscape:window-y="-8"
     inkscape:window-maximized="1" />
  <metadata
     id="metadata7">
    <rdf:RDF>
      <cc:Work
         rdf:about="">
        <dc:format>image/svg+xml</dc:format>
        <dc:type
           rdf:resource="http://purl.org/dc/dcmitype/StillImage" />
        <dc:title></dc:title>
      </cc:Work>
    </rdf:RDF>
  </metadata>
  <g
     inkscape:label="Layer 1"
     inkscape:groupmode="layer"
     id="layer1"
     transform="translate(-155.30648,-532.03752)">
    <path
       sodipodi:type="arc"
       style="fill:#000000;fill-opacity:1;stroke:none"
       id="path2861"
       sodipodi:cx="21.480547"
       sodipodi:cy="11.077473"
       sodipodi:rx="60.047894"
       sodipodi:ry="60.047894"
       d="m 81.52844,11.077473 a 60.047894,60.047894 0 1 1 -120.095787,0 60.047894,60.047894 0 1 1 120.095787,0 z"
       transform="matrix(1.0487805,0,0,1.0487805,196.7781,584.41968)" />
    <path
       transform="matrix(1.0040651,0,0,1.0040651,197.73861,584.91501)"
       d="m 81.52844,11.077473 a 60.047894,60.047894 0 1 1 -120.095787,0 60.047894,60.047894 0 1 1 120.095787,0 z"
       sodipodi:ry="60.047894"
       sodipodi:rx="60.047894"
       sodipodi:cy="11.077473"
       sodipodi:cx="21.480547"
       id="path2865"
       style="fill:url(#radialGradient3645);fill-opacity:1;stroke:none"
       sodipodi:type="arc" />
    <path
       style="fill:#000000"
       d="m 214.93123,651.74392 c -1.99898,-1.71895 -2.12334,-2.12882 -2.12334,-6.99806 l 0,-5.17216 -3.42982,1.73688 c -1.88641,0.95529 -5.85426,2.35696 -8.81745,3.11481 -5.98916,1.53177 -11.13765,1.09553 -15.20828,-1.28861 -3.9154,-2.29324 -5.07673,-4.64395 -5.09021,-10.30344 -0.006,-2.80268 0.23853,-6.36979 0.54494,-7.92691 0.30983,-1.57455 0.29041,-2.43703 -0.0437,-1.94323 -1.37682,2.03465 -5.51419,4.42047 -7.66577,4.42047 -3.70672,0 -5.94155,-3.26392 -5.94155,-8.6775 0,-2.55901 0.59297,-5.99234 1.45358,-8.41631 l 1.45357,-4.09411 -1.63051,-2.20763 c -1.27481,-1.72604 -1.62527,-3.11138 -1.60643,-6.35015 0.0202,-3.4834 0.52283,-5.11259 3.15871,-10.23964 3.14897,-6.12504 4.96503,-8.56127 4.94815,-6.63792 -0.005,0.53426 -0.75473,2.27616 -1.66675,3.87088 -3.02228,5.28464 -4.96524,11.7157 -4.41911,14.62689 0.42809,2.28192 0.7593,2.64501 2.4106,2.64272 2.84887,-0.005 5.46547,-1.88568 14.13631,-10.16625 l 7.85269,-7.49927 -5.25755,-3.83955 c -2.89165,-2.11174 -6.67201,-4.73439 -8.40078,-5.8281 -4.35914,-2.75779 -5.61232,-5.86774 -3.88874,-9.65058 0.847,-1.85893 2.01946,-2.69181 7.91216,-5.6205 2.23836,-1.11248 4.06975,-2.15032 4.06975,-2.30632 0,-0.156 -0.52178,-0.80543 -1.15953,-1.44318 -1.8605,-1.86049 -0.23041,-6.28318 2.75511,-7.47507 1.26346,-0.50441 4.30521,-1.82078 6.75943,-2.92527 4.83751,-2.17708 19.33962,-7.08828 19.74213,-6.68577 0.86028,0.86029 -1.07071,2.49289 -4.23514,3.58068 -10.65457,3.66253 -23.862,9.2005 -23.862,10.00547 0,0.21011 0.48255,1.31515 1.07233,2.45566 l 1.07233,2.07367 3.70519,-1.48561 c 11.81983,-4.73921 29.28464,-9.80982 33.78821,-9.80982 0.81265,0 2.27379,0.79622 3.24694,1.76937 1.49572,1.49571 1.69635,2.17987 1.29726,4.42362 -0.6878,3.86697 -2.5001,6.47093 -7.75349,11.14041 -2.5698,2.28416 -5.67829,5.55373 -6.90773,7.26571 -2.71639,3.78251 -3.34411,2.82908 -1.09816,-1.668 1.48388,-2.97118 5.91986,-7.77651 11.5601,-12.52262 2.09257,-1.76084 2.10141,-1.79807 0.77504,-3.2637 -0.97853,-1.08127 -2.19319,-1.48254 -4.48755,-1.48254 -3.23839,0 -13.55869,2.48458 -21.05319,5.06849 -8.40662,2.89838 -25.12621,10.36517 -25.12621,11.22109 0,0.23924 1.03512,0.96871 2.30029,1.62105 2.41097,1.24314 8.16502,4.69881 15.21837,9.13958 l 4.18011,2.6318 3.27368,-1.24266 c 1.80054,-0.68347 3.44215,-1.41113 3.648,-1.61699 0.20588,-0.20587 -0.30018,-4.22132 -1.12455,-8.92325 -1.43037,-8.15819 -1.39002,-12.23687 0.121,-12.23687 0.38187,0 0.69429,0.29734 0.69429,0.66076 0,0.3634 1.00522,2.27779 2.23381,4.25417 2.21287,3.55979 2.34044,5.3188 0.26053,3.59263 -1.34488,-1.11615 -1.40532,-0.1909 -0.3185,4.87671 0.91341,4.25912 2.89912,6.96823 6.08248,8.29831 2.11349,0.88307 2.35839,1.2784 2.35839,3.80703 0,3.12403 -0.3318,3.30246 -3.28105,1.76432 -2.36322,-1.23251 -6.12787,-1.38344 -8.10566,-0.32495 -1.23095,0.65878 -0.53812,1.3471 6.23962,6.19893 4.19338,3.00183 8.8187,6.3689 10.2785,7.48241 l 2.65418,2.02454 0,-1.91417 c 0,-1.05278 -0.34256,-8.0711 -0.76124,-15.59627 -0.65616,-11.79321 -0.61523,-13.95897 0.29656,-15.68742 l 1.05782,-2.0053 1.53065,3.5389 c 3.57137,8.25711 4.21844,12.52363 1.32959,8.76661 l -1.29856,-1.6888 0.0471,3.8928 c 0.0258,2.14103 0.41693,8.32125 0.86898,13.73382 l 0.82189,9.84103 2.75346,1.42743 c 2.52918,1.31116 2.9904,1.34553 5.66225,0.4218 l 2.90882,-1.00565 0.12999,-4.24668 c 0.0716,-2.33567 -0.16399,-6.7947 -0.52334,-9.90892 -0.35935,-3.11425 -0.96022,-9.96203 -1.33525,-15.2173 -0.37504,-5.25527 -1.03423,-13.94277 -1.46485,-19.30556 -0.73201,-9.11577 -0.57052,-12.56342 0.58697,-12.53108 0.67138,0.0187 5.08371,10.17444 5.08371,11.70101 0,1.17602 -0.0783,1.17403 -1.41556,-0.0361 -1.73123,-1.56673 -1.70808,-2.22132 -0.40035,11.32449 2.86575,29.68462 3.04035,34.02179 1.56636,38.91202 -1.43331,4.75531 -6.55755,7.17634 -11.34032,5.35795 l -1.77309,-0.67414 0.1345,11.82169 c 0.12988,11.41452 -0.7918,18.54558 -2.39698,18.54558 -0.31795,0 -0.51544,-3.10539 -0.43885,-6.90086 0.0767,-3.79547 -0.13018,-11.24103 -0.45945,-16.54567 l -0.59868,-9.6448 -4.70969,-3.58282 c -2.59031,-1.97055 -5.34683,-4.15966 -6.12555,-4.86471 -0.77874,-0.70504 -3.28205,-2.6722 -5.56292,-4.37148 l -4.14703,-3.08959 1.79434,3.08959 c 2.34704,4.04126 2.96209,7.63676 1.88273,11.00601 -1.34106,4.18604 -3.23095,5.709 -9.47757,7.63735 -6.66751,2.05829 -12.6557,5.32233 -14.2621,7.774 -0.62145,0.94846 -1.45777,3.73175 -1.85845,6.18508 -0.93627,5.73241 0.15684,9.1478 3.89082,12.1568 2.30399,1.85668 3.40625,2.21125 7.61281,2.44894 7.08809,0.40052 16.48874,-3.02455 23.55417,-8.58178 3.2299,-2.54044 3.21762,-3.22247 -0.23036,-12.79375 -1.72267,-4.78191 -2.14712,-6.88241 -1.78299,-8.82338 l 0.47789,-2.54742 3.09703,3.51503 c 3.43695,3.90081 3.84266,4.92256 1.73586,4.37161 -1.74731,-0.45693 -1.7473,-0.31571 2.5e-4,4.28242 1.57156,4.13482 1.84255,9.35233 0.60857,11.71732 -0.44366,0.85028 -2.1455,2.99184 -3.78186,4.75901 -2.43675,2.63152 -3.06549,3.89358 -3.47402,6.97324 -0.38089,2.87137 -0.23597,4.16136 0.61316,5.45727 2.27343,3.4697 4.50057,1.98192 15.09081,-10.08103 3.73818,-4.25802 5.28364,-5.28151 13.14711,-8.70678 l 4.15571,-1.8102 0.14826,-4.95447 c 0.19778,-6.60975 2.21591,-10.26283 5.66964,-10.26283 1.25645,0 1.9094,0.66822 2.78057,2.84546 0.62619,1.56501 1.13851,3.43596 1.13851,4.15769 0,2.20916 -2.08712,7.3766 -3.65236,9.04272 -2.14728,2.28568 -1.26197,3.77201 2.24677,3.77201 2.11992,0 3.34645,-0.46095 4.62279,-1.73729 2.10792,-2.1079 2.13793,-3.085 0.69692,-22.68116 -3.27316,-44.51135 -3.55041,-52.055 -1.91146,-52.00839 0.54269,0.0155 5.07515,10.05121 5.07515,11.23743 0,1.20431 -1.26143,0.92521 -2.06663,-0.45727 -1.02144,-1.75369 -0.97732,0.9899 0.26392,16.41551 3.30334,41.0524 3.11366,47.06195 -1.62888,51.60559 -4.06312,3.89272 -9.04461,3.79928 -10.81614,-0.2029 -0.52866,-1.19434 -1.32145,-2.17152 -1.76175,-2.17152 -1.76993,0 -11.95302,5.15149 -14.51071,7.34079 -1.50175,1.28544 -4.29251,4.40058 -6.20169,6.92255 -5.51255,7.28191 -8.53251,8.52741 -12.46887,5.14245 z m 37.70879,-26.87761 c 1.82738,-1.27995 2.08959,-4.30207 0.55283,-6.37158 -2.14009,-2.88198 -4.7511,1.29131 -3.62215,5.78944 0.49638,1.97771 0.95315,2.06435 3.06932,0.58214 z M 175.7385,621.8937 c 1.02223,-0.67868 3.57992,-3.01452 5.68377,-5.19078 5.34674,-5.53075 8.62595,-7.50291 17.38936,-10.45816 6.31588,-2.12987 7.66387,-2.83605 7.84529,-4.10992 0.32496,-2.28194 -2.21399,-6.73088 -6.34695,-11.12156 -4.37168,-4.64429 -3.19621,-5.12603 -14.55032,5.96315 -4.85697,4.74365 -9.26785,8.40447 -11.10632,9.21771 -2.46133,1.08876 -3.2693,1.93148 -4.18819,4.36839 -2.74032,7.26728 -2.12729,12.57829 1.4509,12.56978 1.08015,-0.002 2.80025,-0.55993 3.82246,-1.23861 z m 2.50609,-7.72196 c -0.88387,-0.88385 -0.47525,-6.03096 0.67046,-8.44536 1.15235,-2.42839 2.97961,-3.47208 2.04603,-1.16865 -1.5136,3.73454 -1.87415,5.26192 -1.48285,6.28165 0.35179,0.91671 0.63532,0.96595 1.4879,0.25838 1.23543,-1.02531 1.29776,-0.72821 0.36302,1.73033 -0.65941,1.73438 -2.07652,2.3517 -3.08456,1.34365 z m 10.71639,-11.7628 c -1.85689,-1.52691 -1.87536,-1.61692 -0.72078,-3.51346 1.33289,-2.18948 2.39403,-2.44402 3.68815,-0.88471 1.22402,1.47484 2.56602,1.32555 3.78977,-0.4216 l 1.03892,-1.48324 2.18622,1.61635 c 2.54573,1.88213 2.64141,2.51646 0.72645,4.81607 l -1.41268,1.69644 -1.8089,-1.69644 -1.8089,-1.69647 -1.29195,1.59251 c -1.58463,1.95329 -1.98275,1.95098 -4.3863,-0.0255 z m 41.21005,50.63178 c 0.0125,-0.29195 0.49013,-1.14909 1.06166,-1.90472 1.35152,-1.78688 1.33927,-3.29742 -0.0225,-2.77486 -1.53397,0.58865 -1.3039,-0.72099 0.39711,-2.26039 1.24845,-1.12982 1.55302,-1.17115 2.1125,-0.28664 0.93509,1.47834 0.85555,1.93583 -0.87048,5.0069 -1.39608,2.48398 -2.7366,3.59498 -2.67829,2.21971 z m 11.6996,-4.78202 c -0.60183,-1.44038 -1.79376,-2.76948 -2.84061,-3.1675 -2.06644,-0.78565 -2.64536,-4.2597 -0.70986,-4.2597 1.14236,0 3.69348,2.34942 4.94214,4.55134 0.67773,1.19512 0.73532,1.18105 0.83974,-0.20526 0.15171,-2.01382 1.77824,-5.24034 2.81117,-5.57638 1.08356,-0.35251 3.32657,3.04647 2.69003,4.07641 -0.33278,0.53842 -0.90312,0.40677 -1.81572,-0.41911 -1.48367,-1.34272 -1.32689,-1.57355 -2.79843,4.11998 -0.47791,1.84907 -1.14175,3.36195 -1.47522,3.36195 -0.33346,0 -1.07292,-1.11678 -1.64324,-2.48173 z m -67.61172,-11.49694 c 0.0139,-0.29195 0.48026,-1.32709 1.03659,-2.30029 1.30309,-2.27951 1.30309,-2.83112 0,-2.83112 -1.2798,0 -1.36828,-0.82584 -0.21233,-1.98179 1.16463,-1.16464 2.45527,-1.06524 2.95127,0.22731 0.44252,1.15324 -2.28849,7.41673 -3.23386,7.41673 -0.31172,0 -0.55547,-0.23888 -0.54167,-0.53084 z m 16.96769,-2.27482 c -1.15898,-0.74016 -1.45839,-6.06149 -0.52807,-9.38489 l 0.53963,-1.9277 -2.51625,1.48462 c -2.63827,1.55661 -3.96162,1.35408 -2.51801,-0.38537 0.91243,-1.0994 9.4644,-6.40137 11.66022,-7.22897 2.17496,-0.81976 1.0134,1.26562 -1.74364,3.13038 -3.48247,2.3554 -4.51669,4.75556 -4.27047,9.91053 0.0623,1.30536 0.36733,1.54848 1.49391,1.19092 1.74533,-0.55395 1.81739,0.42149 0.17694,2.39475 -0.89661,1.07852 -1.5301,1.30375 -2.29426,0.81573 z m 10.3765,-6.42779 c -2.20813,-1.73692 -2.35192,-2.80161 -0.65054,-4.81706 l 1.23861,-1.46728 2.09441,1.71042 c 1.83047,1.49487 2.00886,1.95248 1.41556,3.63131 -0.89375,2.52901 -1.81258,2.74036 -4.09804,0.94261 z m 9.14794,-0.60201 c -1.42127,-1.57048 -1.42122,-3.20791 2.3e-4,-7.37963 1.30262,-3.82298 2.64205,-3.85463 1.5881,-0.0375 -0.81318,2.94507 -0.18768,6.85472 0.83256,5.20393 0.84921,-1.37405 1.43711,-0.61155 0.9537,1.23698 -0.53792,2.05699 -2.01089,2.48313 -3.37459,0.97627 z m 22.93639,-2.07932 c 0,-0.40796 0.30807,-0.93213 0.6846,-1.16484 0.37652,-0.23271 0.50756,-1.30828 0.29117,-2.39018 -0.29539,-1.47697 0.0865,-2.53739 1.53272,-4.25615 2.18283,-2.59413 4.9232,-2.84229 4.9232,-0.44581 0,1.09107 -0.47185,1.41556 -2.05848,1.41556 -1.13218,0 -2.18484,0.37111 -2.33925,0.82467 -0.40072,1.17701 2.32585,1.86684 5.2273,1.32253 2.07798,-0.38983 2.43782,-0.27377 2.23876,0.72209 -0.14644,0.73252 -1.72681,1.6628 -4.13,2.4311 -2.14104,0.6845 -4.45017,1.47813 -5.13141,1.76365 -0.72192,0.30256 -1.23861,0.2097 -1.23861,-0.22262 z m 35.03515,-9.8491 c 0,-5.74208 -0.56254,-18.44801 -1.25008,-28.23539 -0.93898,-13.36689 -1.05551,-18.29859 -0.46823,-19.81788 0.77112,-1.99486 0.81464,-1.94493 3.17161,3.63964 1.31436,3.11422 2.40095,6.06037 2.41463,6.54697 0.0363,1.29493 -1.20696,1.07943 -2.04179,-0.35389 -1.02126,-1.75338 -0.95088,1.908 0.30267,15.74812 1.35203,14.92731 1.34113,24.61761 -0.0328,29.24444 -0.59901,2.01705 -1.31564,3.66756 -1.59251,3.66776 -0.27688,2.1e-4 -0.50341,-4.69769 -0.50341,-10.43977 z m -68.28414,2.27977 c 0.4938,-0.595 3.37716,-3.17408 6.40747,-5.73132 3.03031,-2.55722 5.6825,-5.09995 5.89376,-5.6505 0.21127,-0.55053 0.029,-1.78042 -0.40506,-2.73306 -0.63305,-1.38936 -0.54989,-2.09728 0.42023,-3.57788 0.97528,-1.48846 1.40579,-1.68284 2.22374,-1.004 0.55788,0.46299 1.01432,1.69461 1.01432,2.73693 0,1.04232 0.35445,2.24957 0.78768,2.68279 0.92461,0.92462 0.19431,2.4516 -1.03727,2.16877 -0.46783,-0.10739 -2.10274,1.19062 -3.63312,2.88455 -3.19111,3.53218 -10.46328,9.30553 -11.72137,9.30553 -0.63745,0 -0.62511,-0.26881 0.0496,-1.08181 z m 40.32679,-4.5037 c 0,-0.4315 0.637,-0.78452 1.41556,-0.78452 0.77856,0 1.41557,-0.34381 1.41557,-0.76403 0,-0.48842 -0.82974,-0.59113 -2.3003,-0.28472 l -2.30028,0.47928 1.52639,-1.57589 c 1.24924,-1.28976 1.98821,-1.48925 4.06974,-1.09876 2.84579,0.53388 3.11426,1.09467 1.30473,2.72539 -1.62051,1.46038 -5.13141,2.35205 -5.13141,1.30325 z m -78.81121,-1.32022 c -0.2187,-0.35386 0.38505,-1.79523 1.34168,-3.20303 1.6168,-2.37934 1.65199,-2.60921 0.49954,-3.26318 -1.15358,-0.65462 -1.15839,-0.78597 -0.0692,-1.88904 1.62907,-1.64964 2.95929,-0.61142 2.45395,1.9153 -0.4998,2.49899 -3.6731,7.33468 -4.22607,6.43995 z m 85.55154,-4.40064 c -1.18425,-1.30859 -1.19019,-1.51106 -0.0934,-3.18501 1.34699,-2.05575 1.69537,-2.12451 3.57199,-0.70502 1.23312,0.93272 1.53893,0.8804 3.0274,-0.51795 l 1.65572,-1.55546 1.91098,1.91099 1.911,1.91098 -1.90345,1.90345 c -1.86069,1.86068 -1.93589,1.87413 -3.34589,0.59809 -1.34502,-1.21724 -1.52982,-1.22628 -2.73677,-0.13401 -1.68047,1.52082 -2.4564,1.47694 -3.99759,-0.22606 z m 2.46082,-7.91222 c 0,-1.38323 -0.20509,-4.47712 -0.45575,-6.87531 l -0.45574,-4.36032 -2.46459,1.45414 c -2.6958,1.59057 -4.20627,1.21444 -1.93116,-0.48089 4.83885,-3.60572 4.51897,-2.70145 3.84257,-10.86254 -2.08791,-25.19162 -2.22763,-31.85015 -0.66833,-31.85015 0.66557,0 4.96413,10.19361 4.96413,11.77193 0,1.08032 -0.12781,1.07186 -1.41562,-0.0937 -1.40004,-1.26702 -1.41225,-1.24295 -1.11045,2.1906 0.16783,1.90942 0.54625,6.81596 0.84093,10.9034 0.29467,4.08743 0.5953,7.67057 0.66808,7.96253 0.0728,0.29196 0.17214,1.36608 0.2208,2.38696 0.0757,1.58909 0.24552,1.72577 1.18014,0.9501 0.75737,-0.62856 0.86574,-1.13193 0.3539,-1.64378 -1.03645,-1.03644 -0.91739,-3.47739 0.24729,-5.07019 0.81057,-1.1085 1.17533,-1.18929 2.05888,-0.456 1.35105,1.12126 1.41884,7.19487 0.0804,7.19487 -1.78355,0 -3.88074,3.6207 -3.4459,5.94918 0.47457,2.54123 -0.8577,11.78164 -1.84139,12.77162 -0.41976,0.42247 -0.66811,-0.26244 -0.66811,-1.84256 z m 22.93847,-0.95782 c -0.54218,-2.1602 0.18033,-6.32939 1.55882,-8.9951 1.68617,-3.26068 2.26593,-2.22215 0.94226,1.68788 -1.30924,3.86739 -1.12407,5.86918 0.48579,5.25142 1.15607,-0.44363 1.17175,-0.3309 0.28007,2.01437 -0.88154,2.31864 -2.68964,2.34158 -3.26694,0.0415 z m -40.34887,-2.85251 c -0.70508,-2.80923 1.26833,-10.23679 2.71979,-10.23679 0.77286,0 0.67357,0.65153 -0.61265,4.01939 -1.32884,3.47956 -0.89815,5.87815 0.80213,4.46703 1.28088,-1.06301 1.44785,0.0706 0.32062,2.17683 -1.02914,1.92295 -2.69546,1.70293 -3.22989,-0.42646 z m -53.41963,-4.67161 c -0.93709,-1.75096 -0.56189,-4.8493 1.05618,-8.7219 1.41637,-3.38983 2.19068,-2.86902 1.17465,0.79007 -0.41549,1.4963 -0.7572,3.45863 -0.75937,4.36075 -0.002,1.33783 0.26645,1.55438 1.46287,1.17464 1.42475,-0.45218 1.43437,-0.40282 0.33572,1.72177 -1.33126,2.57435 -2.16168,2.74569 -3.27005,0.67467 z m 39.08773,0.5809 c -0.85954,-1.03568 -0.0312,-4.97036 1.79189,-8.51213 1.5877,-3.08439 1.92664,-1.69578 0.57751,2.36605 -1.28418,3.8663 -1.06227,5.00791 0.69068,3.5531 1.3011,-1.07982 1.4803,0.0363 0.34609,2.15568 -0.84909,1.58652 -2.29801,1.77254 -3.40617,0.4373 z m -56.27848,-5.08441 c 0.22407,-0.58391 0.63616,-1.06167 0.91575,-1.06167 0.72981,0 8.84791,-6.36278 9.13911,-7.16303 0.13413,-0.36858 -0.14351,-1.1369 -0.61698,-1.70738 -1.20964,-1.45754 0.40424,-5.2852 2.22845,-5.2852 1.08517,0 1.32968,0.53441 1.32968,2.90621 0,3.59689 -2.8048,7.40967 -8.04862,10.94105 -3.86701,2.60419 -5.60575,3.08568 -4.94739,1.37002 z m 3.82178,-8.79694 c -0.62769,-1.17288 -0.50832,-2.12737 0.57125,-4.56796 0.75063,-1.69689 1.71936,-3.30441 2.15275,-3.57226 1.02384,-0.63276 0.99674,-0.36816 -0.27368,2.67239 -0.58392,1.39751 -1.06167,2.90865 -1.06167,3.3581 0,0.58931 0.29605,0.57148 1.06167,-0.0639 1.66157,-1.37897 1.38121,0.90699 -0.29755,2.42627 -1.29662,1.1734 -1.39581,1.16176 -2.15277,-0.25261 z m 29.07259,-4.84699 c -0.96224,-1.88616 -2.02929,-2.96641 -3.07706,-3.11512 -2.02237,-0.28706 -2.63755,-3.19632 -0.8231,-3.89259 0.87071,-0.33412 1.79551,0.19899 3.14103,1.8107 l 1.90697,2.28425 0.78669,-3.12423 c 1.00108,-3.97563 2.52397,-5.42077 3.59787,-3.41418 1.41448,2.64299 0.384,5.18264 -1.11727,2.75354 -0.66677,-1.07887 -1.48703,1.54033 -1.60478,5.12428 -0.14055,4.27775 -1.14405,4.83956 -2.81035,1.57335 z m 36.72574,-3.34085 c -0.97404,-1.17364 -0.67542,-5.01476 0.65432,-8.41654 1.20624,-3.0858 1.78653,-1.62322 0.78095,1.96834 -0.87303,3.11818 -0.53712,5.07911 0.73535,4.29268 1.04296,-0.64458 0.7655,1.53786 -0.30889,2.42952 -0.73636,0.61113 -1.18152,0.54562 -1.86173,-0.274 z m 10.59287,-1.10513 c -0.86959,-1.62486 -0.34757,-5.02334 1.1895,-7.74408 0.92997,-1.64609 0.96879,-1.51016 0.55707,1.94985 -0.38301,3.21881 -0.29071,3.66103 0.68599,3.28623 1.29893,-0.49845 1.46593,0.59664 0.39588,2.59604 -0.9439,1.76366 -1.85257,1.73539 -2.82844,-0.088 z m -27.40429,-5.01901 c -0.4866,-0.48666 -0.88473,-1.47788 -0.88473,-2.20268 0,-1.75152 3.46307,-9.01576 4.29808,-9.01576 1.02238,0 0.78198,1.17534 -0.75654,3.69874 -1.74687,2.86515 -1.97029,5.42615 -0.35653,4.08685 1.55671,-1.29196 1.42316,0.81235 -0.17694,2.78822 -0.99096,1.22365 -1.41552,1.35256 -2.12334,0.64463 z m -38.68182,-1.83014 c -0.82264,-0.82265 -0.40834,-5.24041 0.69078,-7.36588 1.4055,-2.71793 2.13914,-2.12757 1.09131,0.87819 -1.0271,2.94637 -0.99607,3.46941 0.20581,3.46941 0.63505,0 0.86603,0.49473 0.63803,1.36661 -0.37262,1.42489 -1.89508,2.38252 -2.62593,1.65167 z m 48.41381,-18.45283 c 0,-0.31413 0.87587,-0.94532 1.9464,-1.40263 1.89488,-0.8095 1.87615,-0.82366 -0.70779,-0.53503 -2.75224,0.30742 -3.25973,-0.14143 -1.80484,-1.59632 0.88038,-0.88038 6.36073,-1.18893 7.14728,-0.40237 0.85579,0.85577 -0.90394,2.94828 -3.13282,3.72528 -2.67002,0.93077 -3.44823,0.9784 -3.44823,0.21107 z"
       id="path2830" />
    <path
       style="fill:url(#radialGradient3869);fill-opacity:1;stroke:#000000;stroke-width:0.24409713000000000;stroke-opacity:1"
       d="m 58.015464,124.03821 c -5.201732,-0.61961 -10.655311,-1.8723 -14.767877,-3.39219 -5.626548,-2.07941 -12.287312,-5.84012 -16.842702,-9.5095 -2.310719,-1.8613 -6.468574,-5.72444 -6.468574,-6.01008 0,-0.12698 0.277279,-0.64986 0.616174,-1.16197 0.854152,-1.29071 2.068895,-4.53476 2.068895,-5.525115 0,-2.025169 -2.283488,-2.080589 -3.317764,-0.08052 -0.423745,0.819432 -0.283788,1.175579 0.464028,1.180806 1.417953,0.0099 1.43382,0.735119 0.06993,3.195919 l -0.817889,1.47568 -1.421839,-1.72833 C 6.1720133,88.59417 1.6116958,71.159921 4.6898349,53.135146 5.5145999,48.305541 7.6789638,41.788374 9.9921969,37.169085 19.037791,19.105957 36.214197,6.8774177 56.306965,4.1958345 60.35709,3.6553043 67.622263,3.6536276 71.657491,4.1922917 82.71475,5.6683298 92.444476,9.7665333 101.46475,16.747242 c 2.66504,2.06245 7.74117,7.138577 9.80362,9.803618 6.31093,8.154802 10.25439,16.869252 12.04003,26.606587 0.6932,3.780118 0.90497,6.359722 0.90172,10.984371 -0.007,9.621001 -1.91812,17.844257 -6.16422,26.520329 -3.50267,7.15702 -8.56917,13.714903 -14.62714,18.932813 -6.842293,5.89346 -15.269261,10.37925 -23.729226,12.63138 -5.431366,1.44589 -8.042329,1.77351 -14.717302,1.84671 -3.356335,0.0368 -6.486881,0.0211 -6.956768,-0.0348 l 0,0 z m 7.868178,-3.29497 c 1.471039,-0.75047 3.084431,-2.36838 6.421458,-6.43946 3.53553,-4.31325 5.592036,-6.4386 7.435009,-7.68393 2.681258,-1.81176 9.489083,-5.26435 11.886908,-6.02845 1.538583,-0.49028 1.607431,-0.44697 2.990514,1.8811 1.314515,2.21266 2.448519,2.92181 4.671795,2.92154 2.168534,-2.4e-4 4.169864,-0.96918 6.177174,-2.99061 2.44297,-2.460142 3.16295,-4.510362 3.61088,-10.282473 0.42237,-5.442651 -0.12417,-16.300805 -2.00422,-39.81785 -0.8023,-10.035809 -1.17106,-17.941139 -0.83688,-17.941139 0.11507,0 0.56421,0.344062 0.99807,0.76458 0.99255,0.962017 1.68818,0.825107 1.46548,-0.28842 -0.41072,-2.053582 -4.61934,-11.071274 -5.09331,-10.913283 -0.54499,0.181661 -0.71205,1.555463 -0.70524,5.799277 0.007,4.206243 0.66783,16.924553 1.37661,26.484539 1.34277,18.111239 2.3116,33.185413 2.3122,35.976007 7.3e-4,3.913463 -0.25957,4.935769 -1.59897,6.27719 -1.40279,1.404894 -2.79356,1.884372 -5.124365,1.766672 -1.680131,-0.0848 -1.93115,-0.16321 -2.448185,-0.764294 -0.673959,-0.783525 -0.536469,-1.426409 0.613421,-2.868271 1.336466,-1.675807 3.219739,-5.997113 3.567749,-8.186449 0.30429,-1.914327 -1.3963,-6.716582 -2.675269,-7.554592 -1.587146,-1.039939 -4.397488,0.515314 -5.480547,3.032954 -0.676805,1.573274 -1.254361,4.992587 -1.256983,7.441721 -0.0012,1.090006 -0.06966,2.543919 -0.152209,3.23092 l -0.15009,1.249094 -1.373396,0.563647 c -3.538959,1.452405 -9.244988,4.22303 -10.721327,5.20587 -1.741069,1.15907 -3.578491,2.98721 -8.791676,8.74725 -5.142562,5.68201 -7.362972,7.51681 -9.096611,7.51681 -0.737776,0 -1.056536,-0.17305 -1.766695,-0.95911 -1.411613,-1.56249 -1.658571,-3.15937 -1.032069,-6.67353 0.451162,-2.53064 1.027241,-3.63495 3.23313,-6.19777 2.565285,-2.98036 3.886751,-4.80718 4.25523,-5.882499 0.460228,-1.343071 0.390678,-5.448333 -0.130977,-7.73079 -0.243302,-1.064552 -0.814945,-2.964806 -1.270316,-4.222788 -0.45537,-1.257981 -0.827946,-2.511784 -0.827946,-2.786227 0,-0.458436 0.09919,-0.485348 1.220486,-0.33113 0.969632,0.133358 1.220486,0.09673 1.220486,-0.178225 0,-0.502164 -1.286556,-2.235385 -3.785351,-5.09955 L 60.825127,75.268505 60.5008,76.967053 c -0.469929,2.461089 -0.101364,4.458348 1.92596,10.436831 2.838132,8.369505 2.8866,9.196892 0.660652,11.277679 -3.952995,3.695207 -11.586222,7.407027 -18.131145,8.816667 -2.378724,0.51233 -7.684507,0.56865 -9.641837,0.10234 -1.716791,-0.409 -2.751411,-0.94611 -4.271699,-2.21761 -1.795952,-1.50205 -2.979191,-3.21523 -3.574642,-5.17562 -0.449766,-1.480759 -0.502372,-2.093838 -0.380058,-4.429328 0.214189,-4.089764 1.36283,-7.979484 2.808324,-9.510009 1.858004,-1.967301 7.324496,-4.784328 13.058013,-6.729136 7.100678,-2.40855 8.888397,-3.929178 10.079654,-8.573716 0.782866,-3.052279 0.05884,-6.358379 -2.328374,-10.632037 -0.663214,-1.187303 -1.165298,-2.199281 -1.115741,-2.248837 0.118953,-0.118951 4.037247,2.845997 9.768091,7.391447 2.550815,2.023194 5.846126,4.601099 7.322914,5.728681 1.476788,1.12758 2.772873,2.125185 2.880188,2.216902 0.348624,0.297943 0.890615,10.365871 1.149599,21.354701 0.139221,5.907152 0.307619,10.987422 0.374218,11.289492 0.300469,1.36279 1.104303,0.0927 1.667743,-2.63507 0.666104,-3.22483 0.947602,-9.358671 0.845706,-18.428012 -0.05349,-4.760658 -0.06883,-8.655743 -0.0341,-8.655743 0.03473,0 0.916743,0.287434 1.960034,0.638741 2.485141,0.836824 4.558189,0.716789 6.815856,-0.394656 3.280853,-1.615159 4.73926,-4.612928 5.106356,-10.496165 0.199451,-3.196523 -0.272093,-10.095701 -1.868559,-27.338879 -0.664999,-7.182558 -1.278656,-14.185094 -1.363685,-15.561192 -0.175067,-2.833294 -0.07193,-2.973763 1.299422,-1.769704 1.009944,0.886743 1.305241,0.918755 1.305241,0.141498 0,-1.713449 -4.411148,-11.8581606 -5.156194,-11.8581606 -0.76808,0 -1.020523,2.8785896 -0.70761,8.0689116 0.379546,6.295562 2.375936,32.082152 2.81473,36.356767 0.587281,5.721131 0.895927,11.907749 0.72076,14.447186 l -0.163091,2.364381 -1.744486,0.612787 c -3.655701,1.284141 -4.079012,1.269996 -7.094613,-0.237065 -1.635277,-0.817235 -2.386491,-1.329316 -2.458739,-1.676044 -0.451782,-2.16822 -1.945268,-26.316962 -1.652884,-26.72612 0.04263,-0.05965 0.431459,0.323082 0.86407,0.850515 1.118006,1.363053 1.600567,1.82096 1.919006,1.82096 0.429162,0 0.10222,-2.018312 -0.711729,-4.393748 -1.117406,-3.261048 -3.569752,-9.031941 -3.756398,-8.839609 -0.09296,0.09579 -0.465411,0.767168 -0.827678,1.491953 -0.968853,1.938387 -0.998147,4.399136 -0.235163,19.754317 0.362409,7.293552 0.601719,13.318211 0.531798,13.38813 -0.06992,0.06992 -0.986009,-0.52104 -2.035753,-1.313245 -1.049743,-0.792205 -4.916212,-3.627518 -8.592154,-6.300691 -6.480893,-4.71296 -9.060734,-6.766834 -9.060734,-7.213478 0,-0.450726 1.323932,-1.054341 2.736117,-1.247471 1.931833,-0.264194 4.216477,0.115304 6.252894,1.03866 2.074553,0.940648 2.52355,0.87894 2.797244,-0.384438 0.246399,-1.137388 0.08749,-3.277993 -0.296627,-3.995724 -0.146649,-0.274013 -1.13895,-0.952037 -2.205115,-1.506716 -3.456489,-1.798264 -4.972242,-4.119715 -6.009078,-9.203202 -0.849251,-4.163779 -0.759814,-4.71341 0.608441,-3.739126 1.710557,1.218023 1.628428,-0.05376 -0.21181,-3.279877 -0.689228,-1.208281 -1.578806,-2.883397 -1.976838,-3.722481 -0.743735,-1.567841 -1.142546,-1.82664 -1.726365,-1.120279 -0.623497,0.75437 -0.370447,5.904197 0.597796,12.165674 0.477486,3.087829 0.941373,6.277841 1.030857,7.08892 0.159676,1.447267 0.149741,1.480823 -0.534336,1.804786 -1.130219,0.535249 -6.043796,2.456811 -6.282247,2.456811 -0.120519,0 -0.725569,-0.314983 -1.344558,-0.699961 -9.238852,-5.746088 -12.678464,-7.84423 -15.649214,-9.545916 -4.62091,-2.646921 -4.972845,-2.897865 -4.635004,-3.304937 0.383983,-0.462673 6.434835,-3.39354 11.83626,-5.733165 11.354073,-4.918007 19.403962,-7.587451 28.698275,-9.516704 5.990803,-1.243532 8.783619,-0.94529 10.347444,1.104991 0.794043,1.041044 0.693663,1.263532 -1.373542,3.044385 -2.787182,2.401098 -6.829999,6.424591 -8.697286,8.655714 -1.823296,2.17856 -3.537446,5.251179 -3.866589,6.93088 -0.151054,0.770858 -0.130199,0.804776 0.340079,0.553092 0.275551,-0.147471 1.210331,-1.176082 2.077288,-2.285804 0.866958,-1.109721 3.596069,-3.986802 6.064691,-6.393511 6.510439,-6.347161 7.685316,-7.978167 8.38244,-11.636817 0.415758,-2.181978 0.186639,-3.187718 -1.007347,-4.421878 -1.269833,-1.312557 -2.491156,-1.900357 -3.948533,-1.900357 -4.304892,0 -23.121937,5.574319 -34.519369,10.225938 L 34.57403,24.568531 34.225913,24.034088 C 34.034449,23.740145 33.529348,22.753342 33.103469,21.841192 32.370578,20.271484 32.351316,20.15824 32.743485,19.724898 33.552406,18.83105 43.766008,14.50371 52.767375,11.241095 57.775631,9.4258144 58.638668,9.0269541 59.839406,7.9726922 61.057209,6.9034472 60.993998,6.4283134 59.658303,6.6113908 55.720197,7.1511684 34.228164,15.420965 32.45153,17.080131 c -1.176551,1.098756 -1.881037,2.633126 -1.889312,4.114907 -0.0069,1.227208 0.09261,1.504818 0.919714,2.567079 1.118148,1.43605 1.434852,1.111129 -3.683179,3.778741 -2.052694,1.069903 -4.139724,2.208956 -4.637845,2.531232 -2.385135,1.543138 -3.329716,3.205044 -3.340041,5.876509 -0.01107,2.863367 1.122229,4.301993 5.973775,7.583219 4.252695,2.876207 11.96076,8.459785 11.96076,8.66415 0,0.174251 -6.451392,6.403493 -11.228468,10.841823 -5.872203,5.455801 -8.226522,6.862928 -11.283866,6.744126 -0.843848,-0.03279 -1.329307,-0.75852 -1.654531,-2.473419 -0.519516,-2.7394 0.944457,-7.994767 3.832628,-13.75836 1.837201,-3.66629 2.295789,-4.839645 2.048121,-5.240382 -0.396777,-0.641997 -2.180887,2.055213 -4.896359,7.402297 -2.450246,4.824822 -2.727419,5.716823 -2.876384,9.256835 -0.161458,3.836897 0.110911,4.975905 1.754557,7.337296 l 1.303006,1.872003 -1.049167,3.098044 c -1.348258,3.981217 -1.934833,7.453552 -1.756729,10.399258 0.492959,8.153157 6.329825,10.030881 12.68249,4.079964 0.500986,-0.469301 0.95835,-0.805494 1.016365,-0.747089 0.05801,0.0584 -0.05827,1.424312 -0.258414,3.035353 -0.240445,1.935463 -0.331199,4.295507 -0.267516,6.956773 0.11775,4.92071 0.510891,6.21574 2.486783,8.19163 1.545513,1.54552 4.677145,3.1404 7.218318,3.67617 4.977863,1.04949 13.118434,-0.59535 19.974742,-4.03601 1.360329,-0.68264 2.51878,-1.24117 2.574339,-1.24117 0.05556,0 0.139936,2.16941 0.187508,4.82092 0.09949,5.54536 0.177153,5.7878 2.394798,7.47578 2.239855,1.70489 3.815184,1.9323 5.926019,0.85543 l 0,0 z m 10.405302,-0.1291 c 0.942874,-1.14387 2.719147,-4.60232 2.71796,-5.29193 -0.0012,-0.71578 -0.881215,-2.11687 -1.329541,-2.11687 -0.737261,0 -2.819197,2.26791 -2.819197,3.07103 0,0.0914 0.371494,0.10583 0.825541,0.0321 1.585734,-0.25733 1.602181,0.57477 0.06169,3.12131 -0.487289,0.80552 -0.88626,1.60189 -0.886605,1.7697 -0.0012,0.58595 0.701843,0.29818 1.430151,-0.58538 l 0,0 z m 12.585372,-3.03766 c 0.219846,-0.54945 0.736021,-2.16964 1.147054,-3.60043 0.411033,-1.43079 0.805115,-2.79366 0.875738,-3.02861 0.183163,-0.60932 0.605136,-0.53166 1.6581,0.30512 0.506809,0.40277 1.002759,0.7323 1.102113,0.7323 0.395543,0 0.775221,-0.75747 0.643248,-1.28329 -0.230201,-0.9172 -1.61576,-2.83107 -2.178977,-3.00983 -1.067967,-0.33896 -2.895903,2.69367 -3.27037,5.4257 -0.08023,0.58536 -0.213329,1.05953 -0.29577,1.05372 -0.08244,-0.006 -0.579997,-0.67193 -1.105674,-1.48024 -1.075658,-1.654 -3.107113,-3.51226 -4.116577,-3.76562 -0.896151,-0.22491 -1.396218,0.23024 -1.396218,1.27084 0,1.22514 0.574768,2.13821 1.796787,2.85436 1.357465,0.79553 2.097268,1.67188 3.228204,3.82405 0.491597,0.93551 1.033043,1.70093 1.203218,1.70093 0.170172,0 0.489278,-0.44955 0.709124,-0.999 z m -51.583402,-15.1241 c 0.690956,-0.36979 1.929071,-2.16381 1.929071,-2.795222 0,-0.497529 -0.09045,-0.529095 -1.208335,-0.421681 -1.150378,0.110537 -1.216309,0.08433 -1.374621,-0.54644 -0.259534,-1.034064 0.05422,-5.01282 0.492513,-6.245623 0.515006,-1.448573 1.499674,-2.618262 3.64293,-4.327445 2.620983,-2.090159 3.477373,-3.232871 2.414091,-3.22121 -0.973701,0.01069 -8.639496,4.504929 -11.249158,6.59508 -1.406617,1.126598 -1.947448,2.187732 -1.115028,2.187732 0.233113,0 1.462986,-0.55523 2.733053,-1.233842 l 2.309215,-1.233845 -0.157265,0.684626 c -0.71372,3.107088 -0.907545,4.765875 -0.782636,6.697881 0.148665,2.299399 0.437632,3.340889 1.057575,3.811649 0.489532,0.37174 0.690451,0.37916 1.308595,0.0483 l 0,0 z m 12.730369,-6.804776 c 0.369197,-0.728906 0.671267,-1.587325 0.671267,-1.907602 0,-0.586654 -1.642112,-2.389514 -3.162613,-3.472206 l -0.727549,-0.51806 -1.106133,1.502576 c -1.640757,2.228812 -1.44341,3.15634 1.066651,5.013219 1.660483,1.228384 2.393624,1.089349 3.258377,-0.617927 z m 7.981305,0.239718 c 0.579411,-0.579411 1.072687,-2.29466 0.856126,-2.976977 -0.153322,-0.483076 -0.180502,-0.477969 -0.845144,0.1588 l -0.686729,0.657927 -0.291793,-0.54522 c -0.360715,-0.674004 -0.370183,-4.205142 -0.01438,-5.361001 0.144374,-0.469001 0.262498,-1.278817 0.262498,-1.799591 0,-0.8317 -0.04649,-0.908281 -0.382242,-0.629634 -0.210231,0.174478 -0.530696,0.604316 -0.712144,0.955198 -0.506357,0.979186 -1.532727,4.388381 -1.704757,5.662519 -0.362299,2.683397 2.052105,5.344431 3.518558,3.877979 l 5e-6,0 z m 25.044246,-3.537129 c 4.371516,-1.517305 5.724869,-2.274214 5.724869,-3.201837 l 0,-0.616733 -2.746093,0.16261 c -3.113535,0.184369 -4.576821,-0.166696 -4.576821,-1.098046 0,-0.641651 0.539332,-0.908794 2.270115,-1.124439 1.966522,-0.245015 2.421165,-0.767326 1.88817,-2.169208 -0.746393,-1.963163 -4.524414,0.05864 -5.893623,3.153969 -0.364164,0.82325 -0.427107,1.352828 -0.302493,2.545067 0.136436,1.305343 0.08764,1.599795 -0.36699,2.21472 -0.604709,0.817913 -0.680833,1.461275 -0.172899,1.461275 0.193296,0 2.07239,-0.59732 4.175765,-1.327378 l 0,0 z m 32.159796,-1.301091 c 0.99718,-3.023802 1.23555,-5.445336 1.20699,-12.261456 -0.0254,-6.066565 -0.29335,-10.724246 -1.2914,-22.44924 -0.48369,-5.682374 -0.67271,-11.121046 -0.39611,-11.397642 0.0792,-0.07916 0.43763,0.205132 0.79661,0.63175 0.83642,0.994035 1.70978,0.965427 1.63893,-0.05368 -0.0498,-0.716718 -2.88991,-8.013111 -3.89144,-9.997404 -0.32187,-0.637703 -0.69881,-1.159461 -0.83765,-1.159461 -1.03138,0 -1.23772,5.234631 -0.60137,15.256071 0.94008,14.80475 1.37088,23.784351 1.5879,33.098038 0.13011,5.584098 0.31229,10.350248 0.40485,10.591445 0.15548,0.405168 0.19081,0.407733 0.46429,0.03372 0.16281,-0.222651 0.57609,-1.254115 0.9184,-2.292145 l 0,0 z M 46.786996,85.985126 c 2.066143,-1.311519 5.615506,-4.280292 9.02005,-7.544588 2.023456,-1.940099 3.869885,-3.579141 4.103175,-3.64231 0.233291,-0.06317 0.713111,-0.178787 1.066266,-0.256925 0.874219,-0.193422 1.053254,-1.021251 0.444142,-2.053621 -0.265942,-0.450737 -0.592534,-1.588093 -0.72576,-2.52746 -0.256353,-1.807524 -0.466767,-2.369697 -1.076278,-2.875547 -0.608278,-0.504827 -1.433099,-0.105667 -2.152346,1.041594 -0.763106,1.217222 -0.836264,2.166899 -0.30248,3.926476 0.61285,2.020197 0.5294,2.283219 -1.284151,4.047528 -0.906211,0.881606 -3.020702,2.796148 -4.69887,4.254538 -4.314361,3.749339 -6.623554,5.99318 -6.452525,6.26991 0.18516,0.299596 0.956898,0.05984 2.058777,-0.639595 l 0,0 z m 41.011738,-4.658089 c 2.088378,-0.620182 4.137354,-2.306632 3.816942,-3.14161 -0.152114,-0.396399 -1.437061,-0.798198 -3.252519,-1.017055 -1.449993,-0.174798 -2.283567,0.216946 -3.741106,1.758168 l -0.85434,0.903391 0.85434,-0.170143 c 1.982501,-0.394817 3.349982,-0.446351 3.543319,-0.133523 0.256971,0.41579 -0.521936,0.970061 -1.363209,0.970061 -0.712769,0 -1.340728,0.557227 -1.08828,0.965697 0.212547,0.343909 0.544642,0.322409 2.084853,-0.134986 l 0,0 z M 7.9429406,79.072918 C 10.246859,76.163985 11.518631,72.303589 10.532143,71.213532 10.000724,70.62632 9.3641005,70.75976 8.4027215,71.659873 c -0.8552033,0.800702 -0.8443625,1.112944 0.061024,1.757636 0.4027603,0.28679 0.7322914,0.707072 0.7322914,0.933955 0,0.226883 -0.546687,1.345302 -1.21486,2.485375 -1.6434015,2.804056 -1.6688957,4.294955 -0.038237,2.236079 l 0,0 z M 96.049637,75.869777 c 1.439446,-1.081579 1.629629,-1.072079 3.079107,0.153784 0.527616,0.446219 1.061076,0.811308 1.185476,0.811308 0.1244,0 1.04149,-0.790567 2.03799,-1.756816 l 1.81181,-1.756818 -1.77069,-1.78259 c -0.97389,-0.980426 -1.87268,-1.782593 -1.99732,-1.782593 -0.12464,0 -0.807338,0.549219 -1.517104,1.220486 -0.752117,0.711323 -1.516786,1.220486 -1.832943,1.220486 -0.298352,0 -1.069763,-0.33837 -1.714245,-0.751932 -0.644482,-0.413564 -1.36402,-0.714912 -1.598971,-0.669663 -0.662404,0.127567 -2.273325,2.410317 -2.274746,3.223417 -0.0015,0.904626 1.850332,2.836023 2.719313,2.836023 0.323348,0 1.165894,-0.43429 1.872323,-0.965092 l 0,0 z m -0.346818,-7.395235 c 0.809089,-2.203799 1.608312,-8.391681 1.536957,-11.899735 -0.03722,-1.829864 0.03583,-2.223281 0.618716,-3.332255 0.69514,-1.322545 1.607035,-2.199755 2.526668,-2.430568 0.85361,-0.214244 1.15305,-1.2869 1.03188,-3.696468 -0.17341,-3.44856 -1.29056,-4.820667 -2.668917,-3.27802 -1.231055,1.37779 -1.509211,3.435519 -0.666973,4.93408 0.287073,0.510778 0.457743,1.096013 0.379266,1.300522 -0.176675,0.460407 -1.350358,1.252993 -1.553962,1.049389 -0.31344,-0.313443 -2.241177,-25.17543 -1.972846,-25.443762 0.08374,-0.08374 0.590546,0.199952 1.126227,0.630437 1.885001,1.514829 1.854445,0.553935 -0.143646,-4.517196 -1.464366,-3.716546 -2.825437,-6.579166 -3.254122,-6.844109 -0.463726,-0.286597 -0.727468,0.235145 -1.003183,1.984523 -0.339061,2.151274 9.76e-4,9.216792 1.162083,24.143259 0.469933,6.041404 0.78662,11.357422 0.703746,11.813374 -0.226436,1.24582 -0.687202,1.798446 -3.066472,3.677804 -1.196103,0.944788 -2.174733,1.827611 -2.174733,1.961831 0,0.623121 1.89415,-0.04534 4.561063,-1.60964 0.427658,-0.250847 0.826461,-0.403224 0.886231,-0.338617 0.167504,0.181059 0.89881,8.499294 0.902564,10.266254 0.0059,2.767508 0.41991,3.398116 1.069453,1.628897 z M 120.1134,67.830665 c 0.38462,-0.425005 1.36732,-2.698486 1.36732,-3.163315 0,-0.110838 -0.46684,-0.192041 -1.03741,-0.180454 l -1.03742,0.02106 -0.0726,-1.115636 c -0.0455,-0.699677 0.20475,-2.10337 0.67127,-3.764815 0.77084,-2.745206 0.91096,-3.784994 0.51007,-3.784994 -0.36064,0 -1.46427,2.025718 -2.10077,3.855963 -1.08168,3.110369 -1.17885,7.054612 -0.20043,8.135753 0.53046,0.586155 1.36771,0.584583 1.89998,-0.0036 l 0,-3e-6 z M 79.532282,65.342893 c 0.843614,-0.451489 2.112194,-3.642046 1.448094,-3.642046 -0.123374,0 -0.5682,0.192226 -0.988503,0.42717 -0.736715,0.411814 -0.776915,0.410137 -1.118219,-0.04665 -0.541551,-0.724796 -0.438244,-1.519488 0.633205,-4.870973 0.54298,-1.698438 0.920952,-3.19532 0.839934,-3.326407 -0.780335,-1.26261 -2.45913,2.363324 -3.049948,6.587403 -0.314868,2.251161 0.01699,4.214364 0.805784,4.766858 0.625919,0.438408 0.784348,0.450005 1.429653,0.104649 l 0,0 z M 26.23434,59.809094 c 0.584767,-0.829989 1.513079,-2.645386 1.513079,-2.958962 0,-0.127776 -0.521757,-0.214533 -1.159461,-0.192796 l -1.159461,0.03952 -0.07264,-0.987847 c -0.03995,-0.543314 0.207198,-2.28214 0.549219,-3.864057 0.69556,-3.21711 0.731661,-3.569448 0.365727,-3.569448 -0.401632,0 -1.881945,3.339144 -2.425059,5.470207 -0.589017,2.311178 -0.622872,3.75222 -0.11662,4.963852 0.774879,1.854548 1.690222,2.256288 2.505214,1.099531 z m 39.68608,-0.07203 c 0.664115,-0.789256 1.315364,-2.566705 1.040967,-2.841102 -0.09014,-0.09014 -0.609254,0.08642 -1.153591,0.392356 -0.544339,0.305935 -1.059594,0.486354 -1.145016,0.400932 -0.292894,-0.292892 -0.03372,-1.97073 0.686804,-4.446182 0.781836,-2.686114 0.893974,-3.601297 0.421995,-3.443972 -0.894613,0.298206 -3.11827,6.293332 -3.11827,8.407067 0,2.151836 1.968488,3.074227 3.267111,1.530901 l 0,0 z M 8.3870742,55.123803 c 3.5315148,-1.603349 8.6135778,-6.012351 10.0039348,-8.679027 1.250505,-2.398445 1.612991,-5.589773 0.755524,-6.651647 -0.64923,-0.803995 -2.111271,-0.08696 -2.874947,1.409964 -0.640884,1.256238 -0.620123,2.737788 0.0552,3.939369 0.410575,0.730519 0.478491,1.060506 0.283151,1.37577 -0.585222,0.944497 -7.8504451,6.679074 -8.8729922,7.003618 -0.4730583,0.150142 -1.2259791,1.268089 -1.2259791,1.82035 0,0.385556 0.7340606,0.300105 1.8761055,-0.218397 z m 4.4393318,-9.405865 c 0.554112,-0.601141 1.007477,-1.196296 1.007477,-1.32257 0,-0.126274 0.06667,-0.403336 0.148164,-0.615696 0.191893,-0.500067 -0.577148,-0.50768 -1.232231,-0.0122 -1.182027,0.89404 -1.149555,0.109085 0.137547,-3.325 0.553441,-1.476622 0.937461,-2.753565 0.853377,-2.837649 -0.547091,-0.54709 -3.231534,4.263198 -3.501225,6.273894 -0.162217,1.209421 0.518964,2.93221 1.15938,2.93221 0.231019,0 0.873399,-0.491844 1.427511,-1.092984 l 0,0 z m 29.35909,-5.411758 c 0.361806,-3.466114 0.708709,-5.380316 1.062265,-5.861566 0.314345,-0.42788 0.361944,-0.418001 1.021578,0.212045 0.945942,0.903516 1.420633,0.590713 1.356035,-0.893571 -0.07927,-1.821424 -1.041662,-3.248389 -1.9882,-2.947969 -0.65265,0.207144 -1.591223,2.202882 -2.29942,4.889383 -0.318517,1.208281 -0.676771,2.141952 -0.79612,2.074826 -0.119349,-0.06713 -0.840163,-0.846095 -1.601812,-1.731039 -1.66299,-1.932195 -2.59929,-2.423175 -3.498027,-1.8343 -1.253619,0.821404 -0.985503,2.730136 0.481265,3.426164 0.444227,0.2108 0.907536,0.383272 1.029577,0.383272 0.424917,0 1.778275,1.525668 2.550266,2.874971 0.427465,0.74713 0.989826,1.571036 1.249687,1.830897 0.76986,0.76986 1.170294,0.09271 1.432906,-2.423113 z m 36.070219,-2.627813 c 0.313513,-0.33372 0.570082,-0.936147 0.59177,-1.389484 0.03502,-0.732211 -0.02404,-0.801527 -0.694008,-0.814403 -0.699333,-0.01345 -0.735664,-0.06685 -0.807224,-1.186625 -0.04121,-0.644902 0.150186,-2.27633 0.42533,-3.625396 0.879086,-4.31027 -0.273504,-3.780185 -1.436693,0.660746 -0.684978,2.615167 -0.68249,5.426421 0.0056,6.301155 0.628957,0.799592 1.199691,0.815685 1.915249,0.05401 l 10e-6,0 z M 89.274689,37.22244 c 0.601002,-0.854394 1.0089,-2.030442 0.920586,-2.654225 -0.06801,-0.480341 -0.203704,-0.560725 -0.843815,-0.499842 -1.030898,0.09805 -1.114974,-0.231402 -0.799386,-3.132338 0.144957,-1.332465 0.215865,-2.562158 0.157577,-2.732652 -0.143529,-0.419823 -1.397456,2.081438 -1.802521,3.595565 -0.399809,1.49449 -0.429233,3.872081 -0.05684,4.592868 0.75418,1.45975 1.743442,1.798679 2.424397,0.830624 z M 61.327684,31.127681 c 0.938675,-1.110532 1.684783,-2.85072 1.361051,-3.174452 -0.176543,-0.176543 -0.447259,-0.128126 -0.884127,0.158122 -1.553956,1.01819 -1.392149,-0.825371 0.369736,-4.212594 1.212389,-2.330813 1.498874,-3.450326 0.882944,-3.450326 -0.465447,0 -0.960962,0.620356 -1.949755,2.440972 -1.592002,2.931275 -2.469768,5.490662 -2.385884,6.956768 0.04529,0.791604 0.951601,2.074826 1.465403,2.074826 0.258545,0 0.77183,-0.356992 1.140632,-0.793316 l 0,0 z M 21.983555,29.734609 c 0.694962,-0.264223 1.370116,-1.39656 1.370116,-2.297893 0,-0.471493 -0.159675,-0.63804 -0.732291,-0.763808 -0.92478,-0.203115 -0.938978,-0.621928 -0.117215,-3.457657 0.366701,-1.265411 0.525931,-2.211645 0.394317,-2.343259 -0.313449,-0.313449 -1.348956,1.162063 -1.844075,2.627653 -0.542038,1.604476 -0.792134,5.221145 -0.410374,5.934473 0.321149,0.600071 0.466062,0.63258 1.339522,0.300491 l 0,0 z m 50.18912,-18.600142 c 1.934009,-0.653124 3.66188,-2.1347275 3.66188,-3.139962 0,-0.8688186 -0.31067,-0.9726863 -2.888106,-0.9655926 -2.7429,0.00755 -3.928815,0.2946826 -4.644647,1.1245626 -0.531179,0.6158094 -0.543946,0.6911754 -0.164121,0.9689108 0.280141,0.2048444 1.010816,0.2623388 2.284664,0.1797724 L 72.295146,9.18077 70.830563,10.017739 c -2.619057,1.496719 -1.800338,2.17795 1.342112,1.116728 z"
       id="path3861"
       transform="translate(155.30648,532.03752)" />
    <path
       style="fill:url(#linearGradient3911);fill-opacity:1;stroke:#ffff00;stroke-width:0.24409713000000000;stroke-opacity:1"
       d="m 15.082267,90.594014 c -2.03167,-1.423037 -1.967763,-6.613306 0.148526,-12.062633 0.812191,-2.091347 1.674066,-3.035821 3.873608,-4.244842 2.886457,-1.586596 6.240407,-4.391088 12.426524,-10.390762 5.455845,-5.291412 7.296661,-6.930359 8.502394,-7.569998 l 1.129908,-0.599415 0.860889,0.463619 c 0.962744,0.518471 4.776127,4.753451 6.557584,7.282569 1.385713,1.967283 2.522273,4.326679 2.733244,5.673964 0.12334,0.787671 0.04819,1.110336 -0.387624,1.66439 -0.660295,0.839427 -1.694539,1.304988 -7.9292,3.569301 -8.674239,3.150322 -10.779768,4.396239 -16.089608,9.520796 -5.147345,4.967735 -6.748359,6.273821 -8.229784,6.713757 -1.638866,0.486691 -2.882233,0.479519 -3.596461,-0.02075 l 0,2e-6 z m 9.738549,-8.307301 c 0.378471,-0.223569 0.822144,-0.690405 0.985941,-1.037413 0.439058,-0.930162 0.962949,-2.705751 0.798337,-2.705751 -0.07842,0 -0.527959,0.238174 -0.998972,0.529276 -0.829802,0.512846 -0.866689,0.515187 -1.188273,0.0754 -0.532551,-0.728307 -0.385761,-2.022996 0.524915,-4.629768 1.163408,-3.330207 1.103387,-4.125329 -0.194935,-2.582361 -0.980496,1.165253 -1.626295,2.748344 -2.009561,4.926169 -0.566519,3.219128 -0.409218,4.796659 0.551,5.525819 0.523832,0.397783 0.707088,0.385654 1.531548,-0.101366 l 0,0 z M 44.839174,69.834121 c 1.054951,-1.479976 0.974118,-2.260324 -0.355362,-3.430579 -0.595484,-0.524166 -1.539772,-1.269782 -2.098417,-1.656924 -0.956978,-0.663184 -1.030259,-0.677919 -1.267065,-0.254771 -0.138237,0.247019 -0.634698,0.873455 -1.103248,1.392082 -1.101703,1.219455 -1.948268,1.25308 -3.332977,0.132385 -1.410804,-1.141815 -1.505391,-1.180208 -2.166034,-0.8792 -0.669435,0.305016 -2.374903,2.753691 -2.374903,3.409837 0,0.476244 2.131138,2.500926 3.231192,3.069787 0.980798,0.507189 1.457155,0.273263 2.785687,-1.367979 l 1.162276,-1.435849 1.810383,1.719687 1.810383,1.719687 0.585374,-0.698897 c 0.321957,-0.384394 0.912677,-1.158064 1.312711,-1.719266 l 0,0 z"
       id="path3901"
       transform="translate(155.30648,532.03752)" />
    <path
       style="opacity:0.75724637;fill:#bde612;fill-opacity:1;stroke:#ffff00;stroke-width:0.0595597;stroke-miterlimit:4;stroke-opacity:1;stroke-dasharray:none"
       d="m 94.595885,93.128353 c -0.423682,-0.787664 -0.558496,-4.023012 -0.219853,-5.276148 0.340728,-1.260847 1.22335,-2.229839 2.031085,-2.229839 1.123794,0 2.372568,1.989152 2.372568,3.779224 0,1.577361 -0.530953,2.662488 -1.726525,3.528555 -1.232579,0.892876 -2.048226,0.958668 -2.457275,0.198208 z"
       id="path3913"
       transform="translate(155.30648,532.03752)" />
    <path
       style="opacity:0.75724637;fill:#008000;fill-opacity:1;stroke:#000000;stroke-width:0.0595597;stroke-miterlimit:4;stroke-opacity:1;stroke-dasharray:none"
       d="m 59.724144,126.73245 c -0.469887,-0.0547 -1.897855,-0.21694 -3.173263,-0.36043 -9.00612,-1.01321 -18.739083,-4.50052 -26.36249,-9.44566 -4.010694,-2.60165 -6.74839,-4.84254 -10.502492,-8.59665 C 14.621201,103.26502 11.330891,98.83105 8.252273,92.921956 2.8147943,82.485269 0.33128239,70.08209 1.3898616,58.649633 2.7506125,43.953779 8.7688304,30.833995 18.955367,20.356633 31.537782,7.4149896 48.256155,0.63492471 66.070669,1.2492241 c 9.279057,0.3199705 17.126534,2.2836571 25.508151,6.3829463 6.981598,3.4145666 11.75626,6.8862776 17.50604,12.7288316 4.54324,4.616557 8.17439,9.76396 11.16819,15.831694 2.29504,4.651528 3.41239,7.603821 4.51351,11.925783 2.53875,9.964729 2.72501,19.39599 0.58161,29.448681 -1.44118,6.759194 -4.93819,14.964885 -8.94628,20.992354 -10.03903,15.096936 -25.403929,24.877316 -43.374452,27.609586 -3.015227,0.45845 -11.221241,0.80594 -13.303294,0.56335 z m 11.960759,-2.79022 c 13.723634,-1.94271 25.539136,-7.7564 35.008067,-17.22533 9.26112,-9.26112 15.11311,-20.958413 17.14768,-34.275779 0.52985,-3.468198 0.60254,-12.663137 0.12639,-15.988363 -1.10199,-7.695745 -3.0379,-13.864619 -6.35899,-20.26325 C 109.2159,20.020674 94.14213,8.5848588 76.322749,4.8681475 71.861793,3.9376951 69.689443,3.7357206 64.117892,3.733399 58.505845,3.7310605 55.985594,3.9602536 51.668938,4.8655127 35.996028,8.1523272 22.453305,17.358254 13.483855,30.822559 10.03515,35.999513 6.7082039,43.757264 5.2139664,50.106233 c -2.2126166,9.40134 -2.1057849,19.729444 0.3010465,29.104109 1.4431242,5.621 4.6200711,12.832364 7.7714721,17.640492 1.600147,2.441362 5.533029,7.567016 5.806126,7.567016 0.185469,0 2.064186,-3.93865 2.064186,-4.32748 0,-0.336799 -0.145624,-0.411885 -1.28151,-0.660779 -0.859468,-0.188326 -0.849174,-0.627999 0.03691,-1.576553 0.737,-0.788963 1.652363,-0.984995 2.172169,-0.46519 0.69394,0.693941 0.03177,3.369302 -1.543026,6.234292 l -0.854882,1.55527 2.016679,1.96258 c 9.56686,9.31021 22.055502,15.32634 34.847744,16.78714 1.275408,0.14565 2.703376,0.3096 3.173263,0.36435 1.476416,0.17202 10.046049,-0.0782 11.960759,-0.34925 z"
       id="path5384"
       transform="translate(155.30648,532.03752)" />
  </g>
</svg>
